<?xml version="1.0" standalone="no"?>
<!DOCTYPE svg PUBLIC "-//W3C//DTD SVG 1.1//EN" "http://www.w3.org/Graphics/SVG/1.1/DTD/svg11.dtd" >
<svg>
<metadata>
Created by FontForge 20090622 at Sun May  5 00:57:54 2019
 By deploy user
Open Source Font - Khas
</metadata>
<defs>
<font id="Khas" horiz-adv-x="1000" >
  <font-face 
    font-family="Khas"
    font-weight="400"
    font-stretch="normal"
    units-per-em="1000"
    panose-1="0 0 0 0 0 0 0 0 0 0"
    ascent="800"
    descent="-200"
    x-height="500"
    cap-height="503"
    bbox="-427 -200 743 772"
    underline-thickness="20"
    underline-position="-123"
    unicode-range="U+0020-U+226F"
  />
<missing-glyph horiz-adv-x="750" 
d="M46 0v750h658v-750h-658zM658 46v658h-566v-658h566z" />
    <glyph glyph-name=".notdef" horiz-adv-x="750" 
d="M46 0v750h658v-750h-658zM658 46v658h-566v-658h566z" />
    <glyph glyph-name=".null" horiz-adv-x="0" 
 />
    <glyph glyph-name="nonmarkingreturn" horiz-adv-x="330" 
 />
    <glyph glyph-name="space" unicode=" " horiz-adv-x="330" 
 />
    <glyph glyph-name="exclam" unicode="!" horiz-adv-x="376" 
d="M200 27v259q-18 -5 -40 -5q-12 0 -26 3q-16 3 -31 8q-37 11 -71 62q-16 24 -24 44t-8 45q0 49 33 80q34 32 79 32q49 0 89 -29q59 -43 59 -108v-388v-20q0 -9 3 -19.5t11 -14.5q7 -4 12 -6v-25q-3 -1 -15 -1q-15 0 -25 2q-12 3 -22 11q-24 19 -24 70zM207 405q1 6 1 20
q0 30 -8 53q-10 29 -33 36q-10 3 -18 3q-29 0 -56 -24t-34 -57q-2 -9 -2 -20q0 -43 24 -72q22 -27 44 -27h6q49 8 63 31q5 8 13 57z" />
    <glyph glyph-name="quotedbl" unicode="&#x22;" horiz-adv-x="0" 
d="M-144 -156q30 0 50 16l33 -43q-27 -17 -57 -17q-12 0 -19 1q-37 5 -61.5 30.5t-24.5 61.5t32.5 57t74.5 21q10 0 15 -1q43 -5 75 -22q27 -14 65 -48q26 -23 42 -44.5t30 -54.5h-19q-17 29 -38.5 50.5t-53.5 42.5t-48 28q-26 12 -56 12q-40 0 -69 -9.5t-29 -35.5
q-1 -15 19 -30t39 -15z" />
    <glyph glyph-name="numbersign" unicode="#" horiz-adv-x="367" 
d="M206 487h-129l-27 63h106q25 0 41.5 -3.5t36.5 -13.5q36 -18 55 -53q10 -19 14 -29.5t4 -25.5q0 -8 -1 -15t-7 -17l-11 -17q-10 -14 -22 -25q24 -22 38 -50q11 -21 16 -37.5t5 -36.5q0 -36 -19 -66q-23 -34 -61 -44l72 -154l-22 -11l-80 157q-16 -4 -31 -4q-10 0 -24.5 2
t-30 8t-25 24.5t-9.5 35.5q0 23 15 35t34 12q5 0 11 -1.5t12 -2.5q28 -7 42 -35q11 -4 24 -4q15 0 31 8q28 14 34 42q1 4 1 13q0 20 -12.5 39.5t-24.5 29t-30 9.5h-129l-23 63h127q9 0 24 5q23 8 31 20q14 20 11 43q-3 20 -21.5 28t-45.5 8z" />
    <glyph glyph-name="dollar" unicode="$" horiz-adv-x="533" 
d="M71 550l195 -193l177 180l40 -37l-180 -180q5 -2 34 -32.5t33 -43.5t7 -28t3 -31q0 -36 -28 -61q-24 -21 -42 -23t-29 -2q-29 0 -57 19q-16 11 -25 27.5t-14 36t-5 36.5q0 29 15 62q5 11 28 36q14 15 22 20l-195 195zM281 302l-22 -25q-22 -26 -25 -32q-14 -25 -14 -47
q0 -27 20 -39q11 -6 24 -6q21 0 38.5 12t20.5 28t3 22q0 34 -22 64q-7 10 -23 23z" />
    <glyph glyph-name="percent" unicode="%" horiz-adv-x="448" 
d="M241 439q7 38 7 72l58 -30q-4 -39 -7 -53l-14 -65q-7 -32 -11 -46l-19 -56q-8 -24 -19 -50l-23 -49q24 -18 38 -30q1 -1 37 -33.5t50 -46.5q32 -32 60 -63l-48 -39q-43 74 -88 122l-37 40l-28 27q-9 -22 -25 -37t-27.5 -22.5t-27.5 -7.5q-18 0 -31 9t-19 24t-6 24
q0 10 2.5 17.5t10 22t17.5 23.5t20.5 11t20.5 2q17 0 33 -10q8 18 10 26l7 20l13 47q-14 -3 -26 -3q-16 0 -40 8q-36 13 -57.5 47.5t-21.5 76.5v133l48 -30v-143q0 -20 7.5 -35t24.5 -21q10 -2 13 -2q6 0 11.5 1t18.5 6q25 9 40 28q8 17 13 31q10 27 15 54z" />
    <glyph glyph-name="ampersand" unicode="&#x26;" horiz-adv-x="432" 
d="M49 443v53q0 27 1 54h12q0 -55 2 -81.5t14 -80t16 -66.5q11 -35 35 -65q33 -41 57 -57q33 -22 75 -22q36 0 59 8.5t44 32.5q34 38 34 89q-26 -17 -54 -17q-10 0 -22 1.5t-26 10.5q-4 3 -27.5 23t-34.5 36q-14 21 -14 47q-1 6 -1 13v10q0 27 8 45.5t27 30t40 11.5t50 -13
q21 -9 36 -26q8 -9 25 -38q24 -41 30 -94q1 -13 2.5 -24.5t1.5 -25.5q0 -35 -14.5 -71.5t-26.5 -53.5t-36 -35q-28 -22 -42 -28q-22 -10 -49 -10q-32 0 -59 14q-20 10 -51.5 35.5t-50.5 55.5q-15 24 -32.5 69t-23 80.5t-5.5 88.5zM372 452q-14 15 -33 15q-12 0 -26 -6
t-25 -14q-33 -24 -33 -61q0 -18 12.5 -29.5t30.5 -11.5q14 0 29 7t27 18q27 24 27 55q0 17 -9 27z" />
    <glyph glyph-name="quotesingle" unicode="'" horiz-adv-x="0" 
d="M-80 -68q-6 1 -17 1q-14 0 -33 -8l-16 47q8 1 21 2t18 1q19 0 36 -5q33 -11 49 -27q21 -20 21 -49q0 -42 -23.5 -64.5t-80.5 -22.5q-61 0 -135 43q-24 14 -61 43l13 9q33 -20 54 -30q65 -30 120 -30q86 0 86 52q0 17 -14.5 25.5t-37.5 12.5z" />
    <glyph glyph-name="parenleft" unicode="(" horiz-adv-x="462" 
d="M162 291l218 -216q17 -16 23 -25q10 -15 10 -34q0 -26 -22 -51q-7 -8 -22 -20l-62 42q17 11 25 17q26 21 26 36q0 12 -5 20.5t-26 29.5l-246 246q-31 31 -31 78q0 66 51 106q37 29 82 29q53 0 91 -38t38 -90q0 -39 -24 -74q-19 -28 -68 -45q-39 -13 -58 -11zM218 383
q22 19 37.5 42t15.5 42q0 15 -10 24t-26 9q-20 0 -44.5 -12t-45.5 -30t-36 -43t-15 -43q0 -9 4 -14q9 -10 30 -10q22 0 46.5 9.5t43.5 25.5z" />
    <glyph glyph-name="parenright" unicode=")" horiz-adv-x="484" 
d="M338 466q46 -26 71.5 -72.5t25.5 -100.5q0 -62 -35 -109q-28 -38 -67.5 -57.5t-86.5 -19.5q-60 0 -110 33q-40 27 -62.5 70.5t-22.5 92.5q0 63 37 113q59 77 152 77q51 0 98 -27zM146 160q27 -19 63 -19q40 0 79.5 26t63.5 65q29 50 29 104q0 36 -13.5 63t-41 41.5
t-53.5 14.5q-37 0 -72 -22t-61 -59q-41 -57 -41 -118q0 -30 11 -54.5t36 -41.5z" />
    <glyph glyph-name="asterisk" unicode="*" horiz-adv-x="517" 
d="M146 350h-96l29 64h388l-30 -64h-205q-14 -2 -28 -8l-23 -10q-23 -11 -44 -30q-25 -23 -28.5 -41t-3.5 -31q0 -21 14 -38q8 -8 19 -11.5t25 -3.5h22q22 0 48 8q35 11 52.5 13t37.5 2q31 0 58 -16q15 -10 24 -20t14.5 -25.5t5.5 -32.5v-12q-2 -9 -2 -13q-6 -39 -35 -67
l-35 30q28 13 28 41q0 16 -3.5 26t-13 18t-20.5 8q-8 0 -21 -4.5t-29 -9.5l-84 -23q-11 -2 -21 -3t-22 -1q-14 0 -20.5 1.5t-20.5 7.5q-41 18 -59 62q-9 24 -9 44q0 17 3.5 32t9.5 25q2 4 26 35q19 26 49 47z" />
    <glyph glyph-name="plus" unicode="+" horiz-adv-x="0" 
d="M-115 613l38 38l38 -38l-38 -38z" />
    <glyph glyph-name="comma" unicode="," horiz-adv-x="175" 
d="M49 52l38 37l38 -38q0 -9 -2 -18.5t-4 -22t-5 -29.5t-9.5 -34.5t-10.5 -23.5q-9 -13 -13 -20q-9 -16 -18.5 -26.5t-14.5 -15.5l-17 17q19 18 31 43q8 18 10.5 25t2.5 19q0 10 -1.5 17.5t-5 21t-8.5 26.5z" />
    <glyph glyph-name="hyphen" unicode="-" horiz-adv-x="225" 
d="M175 550q-50 -77 -70 -142.5t-20 -157.5q0 -91 19.5 -157t70.5 -143q-68 67 -96.5 136t-28.5 164q0 97 28 164.5t97 135.5z" />
    <glyph glyph-name="period" unicode="." horiz-adv-x="157" 
d="M50 58v442l57 -57v-442z" />
    <glyph glyph-name="slash" unicode="/" horiz-adv-x="344" 
d="M186 379q0 31 -5 45t-23 28h-158v48h344v-48h-120q18 -39 18 -85q0 -45 -47 -99q-37 -43 -58 -51q0 -19 6 -33q2 -4 10 -19q4 -7 11.5 -15.5t14.5 -15.5l100 -120l-12 -14l-110 124q-50 56 -70.5 82t-25.5 36.5t-9 20.5t-4 19q0 3 2 11q7 19 14.5 24.5t22.5 5.5
q11 -1 18 -1h46q35 23 35 57z" />
    <glyph glyph-name="zero" unicode="0" horiz-adv-x="321" 
d="M50 299v153h-50v49h321v-49h-50v-196v-18q0 -19 -1.5 -26.5t-10.5 -20.5q-21 -31 -54 -31q-19 -2 -54 15t-48 30q-21 21 -32 37q-21 30 -21 57zM103 452v-168q0 -15 3 -30.5t20 -28.5q9 -7 23 -10t24 -3q14 0 25 11t13 20q8 37 8 73v136h-116z" />
    <glyph glyph-name="one" unicode="1" horiz-adv-x="505" 
d="M347 368v84h-347v48h505v-48h-100v-452l-58 58v256h-182q4 -2 35 -25l37 -28q23 -18 31 -31t8 -35q1 -16 -5.5 -29.5t-20.5 -28.5q-7 -8 -31.5 -23.5t-34.5 -17.5l37 -88l-22 -8l-42 87q-14 -4 -32 -4q-17 0 -30 5q-21 9 -33 24.5t-12 36.5q0 19 7.5 33t23 17.5t24.5 3.5
q13 0 20 -4q1 -1 16 -13q7 -5 12.5 -16t5.5 -15q21 0 36 15t15 37q0 34 -26 50l-129 83v28h292z" />
    <glyph glyph-name="two" unicode="2" horiz-adv-x="386" 
d="M234 362v90h-234v48h386v-48h-100v-146h-134q-17 0 -28.5 -3.5t-21 -16t-9.5 -28.5q0 -7 3 -16q11 -36 50 -36q13 7 20.5 10.5t17 7t18 7t18.5 5.5l56 -64q-16 0 -31.5 -0.5t-31 -3.5t-34.5 -7.5t-33 -20.5q-25 -27 -25 -58q0 -11 3 -22q9 -28 32 -40q14 -7 28 -7
q11 0 24 5q0 24 22 40q17 12 35 12q11 0 23 -6q26 -13 26 -48q0 -12 -4.5 -21.5t-13.5 -20.5q-14 -19 -34 -26l48 -96l-42 -10l-34 106q-44 6 -82 36q-33 26 -49.5 54t-16.5 68q0 43 30 82q-36 12 -54 46q-13 23 -13 45q0 9 1 13q5 34 40 56q12 8 27 11t31 3h10h76z" />
    <glyph glyph-name="three" unicode="3" horiz-adv-x="507" 
d="M350 67v102q-17 -15 -32 -25.5t-33 -19.5l-38 -19q-19 -10 -42 -10q-30 0 -51 12.5t-41 38.5q-27 36 -27 76v12q2 9 2 13q7 48 44 79q-33 7 -57 32q-10 11 -16 20t-9 20.5t-3 22.5q0 10 1 15t6 16h-54v49h507v-49h-100v-452zM165 452l-27 -13q-15 -8 -18 -19t-3 -14
q0 -8 3.5 -17t9.5 -18q10 -16 29 -22l46 1l30 -1l42 -52q-33 0 -43.5 -1.5t-36 -9.5t-30.5 -11q-16 -8 -26 -22.5t-15.5 -28.5t-5.5 -27q0 -16 10 -30q7 -10 19 -15.5t39 -5.5h17q21 0 38 13l36 27q18 11 35.5 24.5t35.5 29.5v212h-187h2z" />
    <glyph glyph-name="four" unicode="4" horiz-adv-x="452" 
d="M294 452h-294v48h452v-48h-100v-147h-116q-20 0 -34.5 -4.5t-28.5 -15.5q-31 -25 -31 -65q0 -25 6.5 -40.5t24 -26.5t34.5 -11q9 0 13 1q25 4 38 28q-6 12 -6 22q0 11 5 22.5t19 16t35 4.5q23 0 37.5 -12.5t18.5 -28.5t4 -24q0 -16 -11 -33t-29 -22l94 -95l-23 -20
l-48 48q-14 -22 -34.5 -39.5t-35.5 -27t-28 -11.5t-28 -2q-17 0 -32 5t-29 18q-29 26 -29 65q-17 -3 -29 -3q-18 0 -39 7t-35.5 18.5t-24.5 30.5q-13 26 -13 45q0 11 5 24q16 39 57 39l33 -47q-15 0 -28.5 -12.5t-13.5 -29.5q0 -10 3 -19q7 -25 36 -30q14 -2 23.5 2t26.5 16
t26 35q-35 37 -47 83q-3 12 -6 26.5t-3 23.5q0 10 5 27q10 29 36 47t59 18h85v94zM274 33q29 20 43 51l-20 20q-22 0 -35 -2.5t-30 -12.5t-36 -20q-20 -14 -20 -33q0 -8 6 -22t22 -14q17 0 44 16q11 6 26 17z" />
    <glyph glyph-name="five" unicode="5" horiz-adv-x="532" 
d="M321 351q16 14 29.5 20.5t33.5 6.5v74h-384v49h532v-49h-100v-76q33 -32 45 -73q8 -29 8 -61q0 -52 -24 -104q24 -3 47 -20q36 -27 36 -69q1 -6 1 -8q0 -63 -56 -88l-37 44q22 3 36.5 18.5t14.5 34.5q0 28 -18 49t-38 23q-14 -23 -46 -54q-26 -24 -48 -36
q-31 -17 -53.5 -24t-53.5 -7q-47 0 -70 7q-32 10 -56 38q-17 20 -24.5 37t-7.5 41q0 44 34 74q-24 0 -44.5 12t-30.5 28.5t-13.5 28.5t-1.5 29q0 18 8.5 32t23 25.5t26.5 17t27 5.5h70l42 -57h-74q-16 0 -27 -2t-22.5 -9.5t-17.5 -12.5q-15 -13 -15 -30q0 -19 8 -29
q4 -5 20 -15q5 -4 20 -4q14 0 23.5 1t19.5 3q16 1 25.5 3.5t32.5 10.5l47 -56q-22 0 -40.5 -2.5t-39.5 -11t-24 -9.5q-13 -6 -20 -17q-10 -16 -10 -33q0 -13 7.5 -32.5t31.5 -29.5t57 -10q24 2 38 9t54 40q18 15 33 30t28 34q-34 11 -56 36q-18 20 -27.5 39.5t-9.5 44.5
q0 30 6 48.5t24 35.5zM411 334q-15 4 -41 -25t-26 -59q0 -28 18 -53t39 -25q19 0 33.5 33t14.5 61q0 27 -8.5 45.5t-29.5 22.5z" />
    <glyph glyph-name="six" unicode="6" horiz-adv-x="427" 
d="M241 318v134h-241v48h427v-48h-125v-200h-84q-29 0 -44 -3.5t-34.5 -16t-30 -23t-17 -28.5t-6.5 -36q0 -22 10 -40.5t24 -27.5t34 -15t39 -6q17 0 35 4q16 5 24 6q28 6 48 15t45 26l37 -51q-19 -15 -40 -26t-42 -17q-8 -3 -28 -8t-41 -5q-26 0 -45 5.5t-42.5 18.5
t-38.5 26t-28 34t-20 39.5t-7 39.5q0 30 1.5 45.5t10 35t18.5 33t27 23.5q10 6 25 10.5t29 7.5q18 2 26 3t14 1q16 0 25.5 -2t14.5 -2z" />
    <glyph glyph-name="seven" unicode="7" horiz-adv-x="434" 
d="M211 345v107h-211v48h434v-48h-174v-148q17 -6 27 -10q31 -12 47 -24q23 -17 38.5 -34.5t22.5 -40.5t7 -44q0 -24 -10 -50q-17 -50 -63 -78q-23 -14 -44.5 -18.5t-53.5 -4.5q-51 0 -96 28q-50 31 -70 89q-6 17 -7 22q-5 19 -5 37q0 23 12 49q9 20 25 34.5t39 25.5
q6 3 22.5 6t24.5 8q21 14 28 24t7 22zM254 271l-50 -27q-1 -1 -46 -13q-20 -5 -26 -10q-23 -16 -30 -24q-12 -14 -14.5 -26.5t-2.5 -22.5q0 -35 29 -64q14 -13 31.5 -19.5t32.5 -8t20 -1.5h8q27 0 54.5 10t40 18t27 27t21.5 33.5t7 34.5q0 18 -6 30t-21 29q-30 34 -75 34z
" />
    <glyph glyph-name="eight" unicode="8" horiz-adv-x="494" 
d="M342 359v93h-342v48h494v-48h-100v-151h-163h-18q-18 0 -26.5 -5.5t-14.5 -11.5t-7 -15q-3 -23 19 -40q8 -6 21 -6q8 0 20.5 1.5t13.5 1.5q8 1 30 3.5t23 2.5q15 0 33 -6q39 -13 64 -51q12 -18 18.5 -33.5t6.5 -34.5q-1 -6 -1 -9q-4 -32 -32 -62q-17 -18 -35.5 -26
t-46.5 -10q-52 0 -104 32q-28 17 -43.5 30t-33.5 34q-13 15 -23 30l-21 33q-12 18 -16 26q-10 16 -15 27l21 12q10 -19 22 -38q9 -14 28 -36.5t44 -44.5q17 -15 25 -21q15 -11 28 -17t27 -8t29 -2q20 0 35.5 6.5t31.5 21.5q11 9 17.5 17t10.5 20.5t4 22.5q0 11 -8 22.5
t-29 14.5q-11 2 -22.5 -2.5t-22.5 -8t-25 -8.5t-19 -5q-12 0 -21 2.5t-22 10.5q-8 4 -15 13l-11 13q-16 19 -24 34.5t-19 42.5q-6 13 -8 19q-5 12 -5 21q0 14 9 24t22 16t27 6q19 -1 30 -1h139z" />
    <glyph glyph-name="nine" unicode="9" horiz-adv-x="427" 
d="M267 358v94h-267v48h427v-48h-100v-147h-102q-29 0 -39.5 -1.5t-31.5 -10.5t-34 -18.5t-22.5 -29t-9.5 -40.5q0 -8 4.5 -32t13.5 -40q2 -4 16 -22q10 -14 18.5 -23t19 -13.5t18 -6.5t16.5 -2t13 1q-11 27 -12 30q-5 16 -5 32q-3 21 -3 38q0 20 7.5 38t17 29.5t24 16
t23.5 4.5q13 0 31 -8q11 -5 20 -10q16 -9 26 -20.5t21.5 -34.5t15.5 -50q1 -10 2.5 -18t1.5 -18q0 -17 -6.5 -32.5t-16.5 -25.5t-26.5 -19.5t-31 -14t-31.5 -4.5q-27 0 -44.5 6.5t-48.5 23.5q-23 13 -36 25t-31 35q-21 26 -29 40q-12 20 -19.5 47t-7.5 29q-3 15 -3 30
q0 7 1.5 15.5t2.5 13.5q10 40 39 65q22 19 51.5 23t48.5 6t37 2t41 -3zM221 99q2 -12 3.5 -17.5t9.5 -19.5q28 0 36 1.5t22 7.5t19 8q14 7 22 20q12 19 12 44q0 29 -25 44q-13 7 -27 7q-9 0 -20 -3q-32 -8 -46 -41q-7 -17 -7 -33q0 -11 1 -18z" />
    <glyph glyph-name="colon" unicode=":" horiz-adv-x="322" 
d="M342 452h-118q18 -39 18 -85q0 -45 -47 -99q-37 -43 -58 -51q0 -19 6 -33q2 -4 10 -19q4 -7 11.5 -15.5t14.5 -15.5l100 -120l-12 -14l-110 124q-50 56 -70.5 82t-25.5 36.5t-9 20.5t-4 19q0 3 2 11q7 19 14.5 24.5t22.5 5.5q11 -1 18 -1h46q35 23 35 57q0 31 -5 45
t-23 28h-158v48h342v-48zM371 290v-53q-37 -19 -71 -19q-23 0 -42 5q-43 9 -74 42l29 29q37 -29 77 -29q47 0 81 25z" />
    <glyph glyph-name="semicolon" unicode=";" horiz-adv-x="529" 
d="M184 265l29 29q32 -29 77 -29q18 0 30.5 3.5t24.5 13.5q26 21 26 47v123h-147q18 -39 18 -85q0 -45 -47 -99q-37 -43 -58 -51q0 -19 6 -33q2 -4 10 -19q4 -7 11.5 -15.5t14.5 -15.5l100 -120l-12 -14l-110 124q-50 56 -70.5 82t-25.5 36.5t-9 20.5t-4 19q0 3 2 11
q7 19 14.5 24.5t22.5 5.5q11 -1 18 -1h46q35 23 35 57q0 31 -5 45t-23 28h-158v48h529v-48h-100v-452l-58 55v182q-13 -6 -25 -11t-28 -6.5t-22 -1.5q-15 0 -38 5q-41 9 -74 42z" />
    <glyph glyph-name="less" unicode="&#x3c;" horiz-adv-x="322" 
d="M93 482q-6 -7 -10 -13t-10 -17l-23 57q11 23 33 35.5t42 12.5q11 0 27 -3.5t27 -13t23.5 -29t17 -38.5t4.5 -48q0 -25 -3 -42t-13 -37q-13 -29 -35 -47q-10 -9 -17.5 -13.5t-18.5 -9.5l-10 -122h-19v171q27 9 54 31q9 8 19 16q14 14 21.5 35t7.5 38q0 5 -2.5 19
t-6.5 22.5t-14.5 17.5t-17.5 12.5t-19 3.5q-15 0 -31 -8q-7 -4 -14.5 -14.5t-11.5 -15.5zM79 38l38 38l38 -38l-38 -38z" />
    <glyph glyph-name="equal" unicode="=" horiz-adv-x="226" 
d="M50 38l38 38l38 -38l-38 -38z" />
    <glyph glyph-name="greater" unicode="&#x3e;" horiz-adv-x="555" 
d="M401 248v204h-105l-30 48h289v-48h-100v-452l-54 55v139l-192 -107l-53 39l202 113l-156 69l-130 -111l-56 27l124 107q-31 5 -58 29q-13 11 -20.5 22.5t-11 26.5t-3.5 26q0 13 6 26.5t16 20t28 13.5q5 2 25 2q38 0 54 -4.5t28 -13.5q5 -4 21.5 -21.5t20.5 -23.5
q9 -13 10.5 -24t1.5 -23t-4 -24q-7 -20 -25 -34zM152 460q-18 -3 -29.5 -15.5t-14.5 -31.5q-1 -10 2 -17.5t12 -19.5q17 -21 42 -21q13 9 19 14q20 16 21.5 22t4.5 16t3 14q0 10 -8 19q-20 25 -52 20z" />
    <glyph glyph-name="question" unicode="?" horiz-adv-x="420" 
d="M209 287l-5 63q9 4 26.5 4.5t24.5 0.5h13q9 -2 12 -2q29 -4 47.5 -19.5t32.5 -42.5q10 -19 11.5 -32t1.5 -46q0 -15 -4 -27l-10 -23q-3 -7 -6 -12q-9 -13 -12 -18l-51 40q23 15 35 40.5t12 48.5q0 34 -28 48q-8 4 -18 4q-9 0 -21 -4l-26 -8q-13 -4 -17 -6zM420 452h-196
q18 -39 18 -85q0 -45 -47 -99q-37 -43 -58 -51q0 -19 6 -33q2 -4 10 -19q4 -7 11.5 -15.5t14.5 -15.5l100 -120l-12 -14l-110 124q-50 56 -70.5 82t-25.5 36.5t-9 20.5t-4 19q0 3 2 11q7 19 14.5 24.5t22.5 5.5q11 -1 18 -1h46q35 23 35 57q0 31 -5 45t-23 28h-157v48h419
v-48z" />
    <glyph glyph-name="at" unicode="@" horiz-adv-x="417" 
d="M183 492q-25 -4 -56 -16q-19 -7 -39 -18l-38 59q30 17 67 25t64 8q30 0 60 -8q45 -12 71 -36q30 -28 42.5 -59t12.5 -75q0 -30 -10.5 -52t-33.5 -51q-30 -39 -76 -58l140 -246l-25 -15l-140 252q-9 -2 -24 -2q-17 0 -38 9.5t-29 15.5q-12 10 -16 24.5t-4.5 19t-0.5 11.5
q0 13 4.5 23t15.5 16t21 6q7 0 14.5 -2.5t19.5 -7.5q14 -8 27 -25t14 -25q15 5 33.5 16t35.5 29q23 24 34.5 43.5t11.5 46.5q0 31 -13.5 52.5t-45.5 37.5q-14 7 -43 7q-24 0 -56 -5z" />
    <glyph glyph-name="A" unicode="A" horiz-adv-x="265" 
d="M320 452h-317v49h317v-49zM282 236q13 10 22 19q4 5 16 19v-72q-19 -18 -38 -30q-14 -9 -34.5 -17.5t-35.5 -12.5t-36 -4q-44 0 -81 31q-45 38 -45 100q0 33 16 57t44.5 39t56.5 15q22 0 61 -11.5t68 -48.5l-10 -11q-9 6 -22 11l-24 9q-21 7 -37 7q-11 0 -22.5 -3
t-17.5 -4l80 -119l17 10q10 6 22 16zM229 202l-83 119q-17 -5 -32 -18t-22 -32q-3 -10 -5.5 -20.5t-2.5 -14.5q0 -14 8 -26q19 -29 65 -29q19 0 36.5 4t35.5 17z" />
    <glyph glyph-name="B" unicode="B" horiz-adv-x="513" 
d="M218 452h-218v48h513v-48h-100v-452l-56 68v57q-21 -27 -51 -39q-17 -7 -29.5 -10t-28.5 -3q-10 0 -27 2t-34 10.5t-33 27.5q-11 14 -17 28t-6 32q0 28 19 51q-14 0 -19.5 1.5t-25.5 9.5t-35.5 25.5t-24 34t-8.5 28.5q0 19 3 29t14.5 22t24 15.5t34.5 3.5h105v59z
M355 216v236h-79v-113h-139q-27 0 -38.5 -4.5t-19 -10t-7.5 -14.5q0 -17 12 -31q8 -9 19.5 -10.5t37.5 -1.5h85l51 -53q-13 4 -28 4h-10q-7 -2 -11 -2q-18 -4 -27 -8t-18 -14t-14 -19t-5 -19q0 -4 3 -13t14 -14t28 -8q23 -4 48 12q14 9 28 19q43 26 70 64z" />
    <glyph glyph-name="C" unicode="C" horiz-adv-x="657" 
d="M291 452h-291v48h657v-48h-100v-317q-37 0 -68 -21.5t-41 -34.5t-10 -26q0 -6 3 -14q8 -16 23.5 -21.5t38.5 -5.5q16 0 27 3q16 6 25.5 9t20 9t16.5 9l22 -42q-20 -13 -42 -19t-47 -6q-37 0 -63 12t-40 40q-5 9 -8 19t-3 25q0 22 11 47q24 52 81 59v49h-158v-226l-54 55
v162l-167 -94l-23 52l180 101q-15 26 -42 44q-20 13 -24 15q-13 7 -27 7q-21 0 -45 -12l-64 -35l-27 55q36 24 74 32q10 2 19 3.5t22 1.5q12 0 35.5 -4.5t54.5 -33.5q25 -23 34 -46v149zM345 452v-184h158v184h-158z" />
    <glyph glyph-name="D" unicode="D" horiz-adv-x="307" 
d="M348 270v-59h-164v-68q0 -22 -6 -25q-5 -3 -15.5 0t-15.5 9l-84 105q-6 8 -10.5 16t-2.5 13q2 6 9.5 7.5t20.5 1.5h48v182h-128v49h348v-49h-164v-182h164z" />
    <glyph glyph-name="E" unicode="E" horiz-adv-x="327" 
d="M213 262h162v-59h-164q0 -20 -10 -48l-8 -24q-4 -12 -15 -14q-18 -4 -32 16l-64 82q-9 12 -11 17q-5 11 -1 19q3 6 9.5 8.5t23.5 2.5h53v83q-5 -1 -17 -1q-21 0 -44.5 7t-38.5 16q-19 12 -28 33t-9 44q0 39 28 56q11 7 25 7q18 0 39 -13q13 -8 38 -30q16 -14 27 -32
t25 -68q7 -26 9.5 -47.5t2.5 -54.5zM375 452h-135l-36 49h171v-49zM59 396q19 -36 63 -36q17 0 34 9q4 16 4 25q0 29 -21 52q-13 13 -26.5 21.5t-26.5 8.5q-9 0 -20 -6q-17 -11 -17 -35q0 -19 10 -39z" />
    <glyph glyph-name="F" unicode="F" horiz-adv-x="0" 
d="M-205 644q-4 10 -7.5 22t-4.5 22q2 -13 14.5 -35t29 -40t36 -29t37.5 -8q21 3 36.5 16.5t20.5 28.5t5 20q0 7 -2.5 13.5t-8.5 17.5h32q8 -19 8 -35t-8 -35q-22 -52 -72 -52q-31 0 -59 21q-21 16 -34.5 32.5t-22.5 40.5zM-150 678l30 31l31 -31l-31 -30z" />
    <glyph glyph-name="G" unicode="G" horiz-adv-x="259" 
d="M310 452h-310v49h310v-49zM309 332v-55h-166v-103q0 -20 -12 -22q-9 -2 -15 1.5t-11 13.5l-49 94q-6 12 -6 30q0 27 21 36q13 5 28 5h210z" />
    <glyph glyph-name="H" unicode="H" horiz-adv-x="345" 
d="M395 452h-395v49h395v-49zM395 352v-56h-123q14 -16 21.5 -29.5t11.5 -32t4.5 -22t0.5 -15.5q0 -18 -9 -39q-20 -44 -62 -52q-10 -2 -15 -2q-19 0 -41 13q-7 4 -38 28q-23 18 -39 44q-6 11 -27 55q-9 19 -20 57q-3 12 -9 33h21l9 -29q10 -30 22 -50l16 -27q15 -23 37 -35
q13 -8 26 -15t25 -7q8 0 18 5q18 10 25 38q2 10 2 13q0 13 -7 26l-14 30q-8 17 -32 44q-18 21 -25 25h222z" />
    <glyph glyph-name="I" unicode="I" horiz-adv-x="347" 
d="M50 236q9 74 76 104q-19 14 -28 22q-30 26 -34.5 42t-6 23t-1.5 16q0 29 27 47q20 13 45 13q15 0 39.5 -6t42.5 -20t31 -40q8 -15 11.5 -29t3.5 -30q0 -22 -10.5 -37.5t-30.5 -27.5q37 -24 78 -24q62 0 104 43v-50q-41 -28 -84 -28q-39 0 -65.5 10.5t-52.5 36.5
q-46 0 -78 -29q-36 -33 -36 -73q0 -13 5.5 -30.5t22.5 -29.5t41 -12q15 0 25.5 2t22.5 9q0 37 31 51q14 6 27 6q25 0 40 -21q9 -14 9 -28q0 -10 -2.5 -17.5t-9.5 -20.5q-17 -29 -50 -32l24 -67l-21 -9l-33 74q-34 0 -59 8.5t-50 29.5q-28 24 -41.5 49t-13.5 58q0 11 1 17z
M311 452l-32 49h118v-49h-86zM210 388q7 13 7 29t-7 29.5t-21 22t-29 8.5q-16 0 -30.5 -8t-22 -21.5t-7.5 -30.5q0 -19 9.5 -34.5t22.5 -20.5t25 -5q37 0 53 31z" />
    <glyph glyph-name="J" unicode="J" horiz-adv-x="270" 
d="M320 452h-317v49h317v-49zM157 181q23 0 58 15t67 40q13 10 22 19q4 5 16 19v-72q-19 -18 -38 -30q-14 -9 -34.5 -17.5t-35.5 -12.5t-36 -4q-44 0 -81 31q-45 38 -45 100q0 33 16 57t44.5 39t56.5 15q22 0 61 -11.5t68 -48.5l-10 -11q-9 6 -22 11l-23 8q-9 4 -15.5 5
t-19.5 1q-38 0 -71 -15.5t-43 -47.5q-3 -10 -4 -14q-4 -14 -4 -22q0 -12 8 -25q19 -29 65 -29z" />
    <glyph glyph-name="K" unicode="K" horiz-adv-x="224" 
d="M274 452h-171v-145q0 -20 3.5 -34.5t15 -26.5t24.5 -16.5t35 -4.5q17 0 27.5 4.5t27.5 15.5q26 17 38 46v-87q-21 -11 -36.5 -14t-41.5 -3q-65 0 -110 56q-19 24 -27.5 44.5t-8.5 49.5v115h-50v49h274v-49z" />
    <glyph glyph-name="L" unicode="L" horiz-adv-x="208" 
d="M50 55v397h-59v48h57q-10 21 -21.5 40t-26.5 39l-22 31q-12 15 -28 25q-22 13 -28 16q-15 7 -30 7q-8 0 -13 -1q-31 -7 -49 -37q-8 -14 -10.5 -27.5t-2.5 -34.5q0 -20 8.5 -33t26.5 -27h-57q-32 41 -32 84q0 11 2 29.5t10 38.5t26 35.5t38 21.5t47 6q26 0 49 -15
q12 -8 40 -35q15 -14 28 -37l21 -38l24 -45q12 -24 20 -43h140v-48h-100v-450z" />
    <glyph glyph-name="M" unicode="M" horiz-adv-x="166" 
d="M25 96l45 46l46 -46l-46 -46zM25 404l45 46l46 -46l-46 -46z" />
    <glyph glyph-name="N" unicode="N" horiz-adv-x="314" 
d="M364 452h-356v48h356v-48zM364 322v-51q-26 -8 -49 -28q-11 -10 -18 -19t-16 -25t-12 -22.5t-7 -17.5l-54 42l30 39q-9 25 -32 35q-14 6 -26 6q-6 0 -23.5 -5t-29 -18.5t-14 -26.5t-2.5 -35q0 -11 6 -22l12 -23q11 -19 26 -36l33 -32l35 -31l-14 -18q-5 2 -38 31
q-26 22 -35 31q-31 29 -41 41q-18 22 -27 49q-5 15 -9.5 30.5t-4.5 30.5t6 30q17 39 54 50q18 4 24 4q17 0 42.5 -10t45.5 -31q16 -18 24 -37q19 20 44 37q9 6 22 13.5t21 10.5z" />
    <glyph glyph-name="O" unicode="O" horiz-adv-x="404" 
d="M246 452h-246v48h404v-48h-100v-121h-121q-18 0 -33.5 -3t-23.5 -8q-27 -16 -22 -50q4 -27 36 -37q7 -2 38.5 8t48.5 10q40 0 72 -14q15 -7 27 -20t17.5 -29.5t5.5 -33.5q0 -12 -1.5 -24t-9.5 -26q-3 -5 -20 -28q-8 -12 -29 -28q-6 -5 -19 -14l80 -80l-21 -21l-81 83
q-14 -9 -24 -12.5t-26 -3.5q-21 0 -37 4.5t-29.5 14.5t-21 20t-10 22.5t-2.5 19.5q0 20 12.5 33.5t33.5 13.5q14 0 34.5 -5t46.5 -31q4 -4 11 -13q14 7 21 12q2 1 19 16q10 8 20.5 17.5t13 21t2.5 22.5q0 18 -10 27.5t-27 9.5h-11q-8 -2 -14 -2.5t-34 -10.5q-14 -5 -25 -5
h-17q-8 0 -17.5 0.5t-27 8t-29 19t-25.5 33.5t-17 29q-8 17 -8 35q0 20 5.5 33.5t19.5 23.5q8 5 16 7t17 2q14 -1 22 -1h116v75z" />
    <glyph glyph-name="P" unicode="P" horiz-adv-x="427" 
d="M50 452h-50v48h427v-48h-100v-164q0 -37 -17 -72q-11 -25 -36 -47l-41 40q21 14 31 38q5 14 5 32v20v153h-162v-227q0 -11 0.5 -20.5t6.5 -24.5t22 -25l201 -128q35 -21 49.5 -38.5t14.5 -39.5q0 -16 -9 -29l-14 -17q-10 -12 -27 -21l-35 34q19 4 33 23q9 12 9 26
q0 11 -7.5 18.5t-22.5 16.5l-199 128q-16 10 -23 14q-13 8 -21 15l-12 12q-8 9 -14.5 22.5t-7.5 30.5t-1 26v204z" />
    <glyph glyph-name="Q" unicode="Q" horiz-adv-x="512" 
d="M354 346v106h-354v48h512v-48h-100v-451l-58 54v233h-114q-22 0 -34 -2.5t-27 -13.5q-25 -18 -32 -50q-3 -14 -3 -24q0 -9 1.5 -15t10.5 -37q6 -19 10.5 -28t30.5 -43q6 -8 16 -18l18 -18l34 -39h-23q-9 6 -17 13l-31 26q-14 13 -30.5 31t-19.5 21l-24 31q-12 15 -20 35
t-11.5 33t-3.5 34q0 19 7 33t23 31h-71l-39 58h349z" />
    <glyph glyph-name="R" unicode="R" horiz-adv-x="338" 
d="M379 452h-379v49h379v-49zM53 312l-25 55h310v-56h-13q-8 0 -19 1q-30 0 -54.5 -2.5t-33.5 -9.5q-22 -18 -29 -27q-13 -16 -13 -35q0 -12 6 -27q10 -27 45 -30q24 -3 56 14q13 7 34 21q45 30 71 66v-66q-13 -19 -27.5 -31.5t-37.5 -24.5q-37 -20 -68 -20q-10 0 -23.5 1.5
t-29 12.5t-28.5 28.5t-19 30.5t-6 30q0 22 2.5 37t10.5 32h-109z" />
    <glyph glyph-name="S" unicode="S" horiz-adv-x="338" 
d="M388 292v-40q-5 1 -11 1h-7q-9 0 -17.5 -2t-18 -4.5t-27.5 -14.5q-3 -2 -9 -7v-225l-56 55v130q-21 -15 -34 -22q-40 -22 -67 -19q-41 5 -66 34t-25 70q0 35 16.5 61t48.5 34q6 2 18 2q26 0 51 -15.5t33 -33.5l-12 -11q-20 14 -43 14q-35 0 -55.5 -27t-20.5 -49
q0 -15 10.5 -27t24.5 -12q16 0 34 10q6 3 32 21q13 9 43 34q4 3 12 10v193h-242v48h388v-48h-90v-163q12 5 23.5 7.5t26.5 2.5q18 0 40 -7z" />
    <glyph glyph-name="T" unicode="T" horiz-adv-x="266" 
d="M316 452h-316v48h316v-48zM316 360v-53h-120q-29 0 -48 -6t-42 -24q-18 -13 -18 -61q0 -16 4 -32.5t13 -28.5l100 -139l-12 -15l-97 122q-22 28 -35 66.5t-13 68.5v10q2 6 2 8q10 43 34.5 63.5t62.5 20.5h169z" />
    <glyph glyph-name="U" unicode="U" horiz-adv-x="260" 
d="M0 501h310v-49h-124v-254q1 -19 1 -28q0 -14 -3.5 -21t-13.5 -7q-15 0 -26 16l-79 105q-10 14 -13 19q-6 11 -2 20q4 10 20 10h64v140h-134v49z" />
    <glyph glyph-name="V" unicode="V" horiz-adv-x="336" 
d="M386 452h-232q8 -25 11.5 -45.5t3.5 -43.5q0 -33 -7 -71q-2 -16 -6.5 -28t-7 -21t-11 -24t-8.5 -26q0 -10 6 -20l25 -31q8 -10 16 -18q14 -14 33.5 -25t22.5 -12q10 -5 21.5 -6.5t16.5 -1.5h8q27 0 57.5 14t50.5 38v-63q-9 -6 -19.5 -12t-19.5 -10l-22 -8q-12 -4 -26 -4
q-33 0 -80 22q-20 10 -36 22l-32 28q-26 22 -36 33q-15 16 -30 39q-8 11 -15 23q-13 20 -18 37.5t-7 26t-2 16.5q0 7 3 16t7.5 16t13.5 10q4 1 17.5 -1.5t19.5 -1.5q11 2 18.5 23t7.5 43q0 39 -28 66h-102v48h386v-48zM386 326v-137q-5 -7 -31 -20q-32 -17 -54 -17
q-23 0 -41.5 10t-34.5 29q-26 31 -26 74q0 21 4.5 37t15.5 31q27 34 73 34q13 0 23.5 -3.5t27.5 -10.5q10 -4 21 -11t22 -16zM323 203q23 8 38.5 32.5t15.5 49.5q0 13 -4 21q-1 5 -27 10.5t-47 5.5q-18 0 -26 -4q-19 -9 -30.5 -33.5t-11.5 -44.5q0 -10 3 -16q7 -13 22.5 -20
t32.5 -7t34 6z" />
    <glyph glyph-name="W" unicode="W" horiz-adv-x="256" 
d="M306 452h-68l-34 48h102v-48zM305 215v-76q-24 -28 -52 -44q-18 -10 -30 -15.5t-25 -7.5l-27 -6q-14 -2 -21 -2q-16 0 -33 7q-31 12 -50 42t-19 62v12q2 8 2 12q4 32 28 64q16 21 39 35q-14 6 -23 11.5t-25 18.5t-23 20q-11 12 -15.5 25t-7.5 24.5t-3 20.5q0 17 9 35
q19 39 57 45q5 1 16 1q30 0 51 -22q9 -10 14.5 -22t5.5 -23q0 -7 -1.5 -16t-10.5 -20t-25 -19q-6 -3 -16.5 -4t-12.5 -1q-13 0 -24.5 1.5t-19.5 5.5q2 -18 15 -37q20 -28 51 -32l16 7q10 4 23 4h32l47 -49q-7 0 -15 1t-13 1h-13q-10 -2 -15 -2q-26 -4 -39 -8t-29 -16
q-21 -16 -29 -25q-12 -15 -13.5 -28.5t-1.5 -26.5t2.5 -20.5t11 -15.5t15.5 -10.5t20 -2.5q16 1 25 1q20 0 41 10l38 22q43 25 73 63zM109 394q20 0 35 11.5t15 30.5q0 18 -16.5 29.5t-37.5 11.5q-23 0 -40 -14.5t-14 -35.5q3 -18 19 -25.5t39 -7.5z" />
    <glyph glyph-name="X" unicode="X" horiz-adv-x="363" 
d="M283 263h129v-50q-33 10 -80 10q-36 0 -73.5 -5.5t-44.5 -9.5q-38 -6 -59 -17t-34.5 -31t-18.5 -30.5t-5 -28.5q0 -16 5 -28t17 -28q9 -12 18.5 -19t26.5 -16q12 -6 22 -10t23 -7l-9 -17q-19 4 -27.5 7t-39.5 20q-15 8 -28 16q-25 15 -38 36q-21 33 -21 67q0 10 2.5 33.5
t34.5 52.5q-24 20 -35 50q-3 11 -7 23.5t-4 26.5q0 11 1 16t7 15q11 20 31 31q13 7 28.5 8t24.5 1h116v73h-245v48h363v-48h-60v-123h-151h-20q-12 0 -20 -2q-19 -6 -27.5 -11.5t-12.5 -19.5q-3 -11 1 -24q5 -10 6 -15q9 -21 25 -35q15 10 26.5 15.5t23.5 9.5t60 10t69 6z
" />
    <glyph glyph-name="Y" unicode="Y" horiz-adv-x="280" 
d="M330 452h-75l-42 50h117v-50zM331 255v-73q-24 -24 -50.5 -35.5t-60.5 -11.5q-67 0 -115.5 41.5t-54.5 107.5q28 4 43 7q47 12 67 33q16 17 20 23q8 12 10.5 27t2.5 20q0 16 -9 33.5t-19 25.5q-13 11 -30 11q-37 0 -49 -30q-4 -9 -4 -20q0 -14 10 -31q16 -25 44 -25v-16
q-17 0 -25 1.5t-20.5 8.5t-21.5 19q-2 2 -9 17q-13 25 -13 50q0 34 26 51q8 5 18.5 7t23.5 2q18 0 42 -18q11 -10 22.5 -19t29.5 -38q26 -41 26 -74q0 -24 -15 -43q-10 -13 -41 -35.5t-66 -27.5q26 -48 78 -59q12 -2 17 -2q36 0 80 31q37 26 43 42zM21 452h-21v49h48z" />
    <glyph glyph-name="Z" unicode="Z" horiz-adv-x="391" 
d="M31 452h-31v48h58zM391 452h-109l-24 48h133v-48zM202 245q8 14 11 30.5t3 35.5q-27 -22 -72 -22q-38 4 -62 34t-24 72q0 45 26 78.5t67 33.5q35 0 60 -23q19 -18 40 -56q13 -24 15.5 -45.5t2.5 -61.5q0 -52 -21.5 -90.5t-65.5 -72.5l90 -142l-12 -16l-102 148
q-15 -7 -31 -7q-12 0 -19 2q-25 5 -41.5 18t-16.5 35q0 19 9 31.5t27 15.5q19 4 43 -17t24 -28q32 15 49 47zM206 408q-5 32 -19 50q-17 23 -46 23q-17 0 -25.5 -17.5t-8.5 -42.5q0 -11 1 -18t4 -20q8 -30 25.5 -50t42.5 -14q15 3 22.5 18t7.5 35q0 9 -1.5 19.5t-2.5 16.5z
" />
    <glyph glyph-name="bracketleft" unicode="[" horiz-adv-x="0" 
d="M-63 -61q-16 0 -32 -0.5t-35 -5t-38 -20.5q-25 -22 -18 -41q5 -14 19 -20t26.5 -7.5t26.5 -1.5q29 0 45.5 5.5t30.5 15.5l20 -36q-19 -6 -31 -9q-39 -10 -64 -10q-14 0 -26 3q-31 7 -51 27t-20 50q0 37 33 62q17 13 61 20q14 2 39 4z" />
    <glyph glyph-name="backslash" unicode="\" horiz-adv-x="0" 
d="M-20 -75h-94l-52 50h121l143 -144l-12 -11z" />
    <glyph glyph-name="bracketright" unicode="]" horiz-adv-x="0" 
d="M-279 629q-26 6 -45 6h-12q-6 0 -21 -4l-28 67q16 0 31 -0.5t33 -4t33 -12.5q1 -1 49 -37q24 -19 41 -36q12 -13 35 -43q8 -10 15 -20q11 -15 23 -35h-17q-21 33 -47 58q-33 32 -41 38q-21 16 -49 23z" />
    <glyph glyph-name="asciicircum" unicode="^" horiz-adv-x="390" 
d="M248 501h-112q-23 0 -37 -1.5t-23 -6.5q-34 -19 -34 -58q0 -16 23 -26q10 -5 25.5 -11.5t28 -8.5t31.5 -2h68l26 -53h-64q-26 -5 -42 -23q-20 -23 -20 -50q1 -8 1 -12q4 -32 36 -51q18 -11 39 -11q8 1 12 1q3 35 36 48q15 5 24 5q13 0 26 -7q28 -15 28 -44
q0 -14 -6 -23.5t-18 -20.5t-24 -17.5t-26 -8.5l93 -153l-25 -17l-98 168q-35 4 -68 23q-24 14 -34 23q-15 14 -22.5 33t-7.5 38q0 22 11.5 51.5t40.5 51.5q-6 -2 -12 -2h-9q-14 0 -22 2q-25 5 -44 25.5t-23 39.5t-4 30q0 12 3.5 24t10.5 27q19 39 61 56q17 7 29 8.5t39 1.5
h60z" />
    <glyph glyph-name="underscore" unicode="_" horiz-adv-x="245" 
d="M157 250q0 91 -19.5 157t-70.5 143q68 -67 96.5 -136t28.5 -164q0 -97 -28 -164.5t-97 -135.5q50 77 70 142.5t20 157.5z" />
    <glyph glyph-name="grave" unicode="`" horiz-adv-x="506" 
d="M506 452h-100v-451l-57 61l1 190l-35 -15l-51 -21q-1 -12 -4.5 -22.5t-15.5 -29t-21.5 -28t-27.5 -15.5t-33 -6h-16l-12 4q-15 5 -25.5 14.5t-22.5 26.5q-21 29 -26 58l10 9q2 -13 11 -29t22 -26q24 -18 51 -18q6 1 10 1q20 3 33.5 14.5t24.5 31.5q8 15 11 26t2 27
q-5 33 -29 48q-17 10 -36 10q-10 0 -15.5 -1t-11 -3.5t-19.5 -11.5t-25 -23l-21 47q20 22 45 29t38 7q5 0 18.5 -2.5t27.5 -12.5q1 -1 24 -21q18 -17 29 -35q12 -3 22 -3q17 0 35 9q27 15 33 44v117h-350v49h506v-49z" />
    <glyph glyph-name="a" unicode="a" horiz-adv-x="474" 
d="M294 452h-294v48h294v-48zM282 236q13 10 22 19q4 5 16 19v-72q-19 -18 -38 -30q-14 -9 -34.5 -17.5t-35.5 -12.5t-36 -4q-44 0 -81 31q-45 38 -45 100q0 33 16 57t44.5 39t56.5 15q22 0 61 -11.5t68 -48.5l-10 -11q-9 6 -22 11l-24 9q-21 7 -37 7q-11 0 -22.5 -3
t-17.5 -4l80 -119l17 10q10 6 22 16zM319 55v397h-47v48h202v-48h-100v-452zM229 202l-83 119q-17 -5 -32 -18t-22 -32q-3 -10 -5.5 -20.5t-2.5 -14.5q0 -14 8 -26q19 -29 65 -29q19 0 36.5 4t35.5 17z" />
    <glyph glyph-name="b" unicode="b" horiz-adv-x="408" 
d="M252 452h-252v48h408v-48h-100v-130h-125q-24 0 -35 -2.5t-27 -13.5q-21 -15 -30 -42q-4 -13 -4 -26q0 -5 2.5 -20.5t9.5 -27.5t22.5 -23t17.5 -12q10 -5 22 -5q27 0 46 10q-9 14 -9 27q0 4 2 14q7 30 42 35q4 1 11 1q24 0 43.5 -17.5t19.5 -49.5q0 -10 -6 -21l-11 -16
q-7 -12 -17 -20l62 -93l-30 -20l-64 98q-17 -4 -35 -4q-14 0 -26 2.5t-24 8.5q-3 2 -26 16q-15 10 -28 23q-6 7 -15 18.5t-15 20.5q-13 19 -18 34.5t-9 30t-4 35.5q0 39 29 67q13 12 26.5 18.5t30.5 6.5h116v77z" />
    <glyph glyph-name="c" unicode="c" horiz-adv-x="532" 
d="M377 342v110h-50l-33 48h238v-48h-100v-452l-55 55v186q-6 -4 -16 -9t-22 -8t-26 -3q-10 0 -15 1q2 -14 2 -21q0 -31 -21 -60q-30 -44 -82 -44q-53 0 -90 41q-12 13 -18.5 27t-17.5 40q-7 17 -12.5 36t-8.5 33l14 5q3 -11 6 -19l8 -17q14 -34 16.5 -39t12.5 -16
q18 -20 34.5 -30t39.5 -10q31 0 53.5 19.5t22.5 49.5q0 25 -17 49.5t-31 29.5q-17 -10 -30.5 -13t-31.5 -3l-40 54q9 0 39 7.5t42 12.5q27 13 40 24q18 16 18 36q0 36 -29 49q-6 3 -17 3q-15 0 -26 -2t-29.5 -6.5t-28.5 -8.5t-33 -19l-31 45q23 15 45 21t51 6q35 0 60 -10.5
t45 -35.5q12 -14 18 -25.5t6 -26.5q0 -16 -6 -36.5t-20.5 -38t-28.5 -25.5q12 -16 34 -23.5t42 -7.5q11 0 14 1q34 10 49.5 25.5t15.5 42.5z" />
    <glyph glyph-name="d" unicode="d" horiz-adv-x="509" 
d="M128 452h-128v48h509v-48h-100v-452l-56 56v154h-169v-68q0 -22 -6 -25q-5 -3 -15.5 0t-15.5 9l-84 106q-10 14 -11 16q-4 8 -2 13q2 6 9.5 7.5t20.5 1.5h48v182zM353 270v182h-169v-182h169z" />
    <glyph glyph-name="e" unicode="e" horiz-adv-x="516" 
d="M214 262h146v-59h-148q0 -20 -10 -48q-3 -12 -7 -24t-15 -14q-10 -2 -18 1.5t-15 13.5l-64 83q-9 12 -11 17q-5 11 -1 19q3 6 9.5 8.5t23.5 2.5h53v82q-14 0 -27 0.5t-31 5.5q-26 8 -41 17q-19 12 -28 33t-9 44q0 39 28 56q11 7 24 7q17 0 39 -14q10 -7 38 -30
q16 -14 27 -32t25 -68q7 -27 9.5 -47t2.5 -54zM297 451h-55l-37 49h92v-49zM360 55v396h-63v49h219v-48h-100v-452zM61 396q19 -36 62 -36q17 0 34 9q4 16 4 25q0 29 -21 52q-12 14 -25.5 22t-27.5 8q-10 0 -19 -6q-17 -11 -17 -35q0 -19 10 -39z" />
    <glyph glyph-name="f" unicode="f" horiz-adv-x="207" 
d="M50 57v395h-50v48h207v-48h-100v-452z" />
    <glyph glyph-name="g" unicode="g" horiz-adv-x="468" 
d="M309 452h-309v48h468v-48h-100v-452l-59 55v223h-167v-103q0 -20 -12 -22q-7 -2 -14.5 2.5t-10.5 12.5l-49 94q-6 12 -6 30q0 15 4.5 25t12.5 13.5t16 3.5q10 -1 16 -1h210v119z" />
    <glyph glyph-name="h" unicode="h" horiz-adv-x="553" 
d="M395 452h-395v48h553v-48h-100v-451l-58 54v241h-123q14 -16 21.5 -29.5t11.5 -32t4.5 -22t0.5 -15.5q0 -18 -9 -39q-20 -44 -62 -52q-10 -2 -15 -2q-19 0 -41 13q-7 4 -38 28q-23 18 -39 44q-6 11 -27 55q-9 19 -20 57q-3 12 -9 33h21l9 -29q10 -30 22 -50l16 -27
q15 -23 37 -35q13 -8 26 -15t25 -7q8 0 18 5q18 10 25 38q2 10 2 13q0 13 -7 26l-14 30q-8 17 -32 44q-18 21 -25 25h222v100z" />
    <glyph glyph-name="i" unicode="i" horiz-adv-x="244" 
d="M49 452h-49v49h253v-49h-147l188 -187v-73q-42 -33 -89 -33q-25 0 -44 6.5t-46.5 21.5t-46.5 46t-19 68v151zM106 422v-158q0 -32 24 -53t57 -21q28 0 59 14.5t42 34.5z" />
    <glyph glyph-name="j" unicode="j" horiz-adv-x="452" 
d="M297 452h-297v48h452v-48h-100v-452l-55 55v132q-18 -12 -34.5 -19.5t-33 -13t-29 -8.5t-28.5 -3q-29 0 -49.5 12.5t-41.5 38.5q-16 20 -24 38t-8 39q0 10 2.5 25t19.5 33t43 32q18 10 37.5 14t41.5 4q35 0 62 -18q23 -15 42 -46v137zM208 208q27 13 56 41q34 33 26 50
q-5 11 -24 17.5t-46 6.5q-29 0 -56 -11q-30 -14 -53.5 -38.5t-23.5 -47.5q0 -10 5 -18q10 -15 50 -15q18 0 33.5 3.5t32.5 11.5z" />
    <glyph glyph-name="k" unicode="k" horiz-adv-x="427" 
d="M50 452h-50v48h427v-48h-100v-452l-53 55v149q-35 -18 -65 -18q-8 1 -13 1q-65 0 -110 56q-19 24 -27.5 44.5t-8.5 49.5v115zM103 452v-145q0 -20 3.5 -34.5t15 -26.5t24.5 -16.5t35 -4.5q17 0 27.5 4.5t27.5 15.5q26 17 38 46v161h-171z" />
    <glyph glyph-name="l" unicode="l" horiz-adv-x="183" 
d="M50 59v393h-50v48h52q-8 13 -15 27.5t-11 29t-7 28.5t-3 27q0 14 6 32q15 47 56 65q23 9 40 9q8 0 20 -2t29.5 -6t34.5 -14q10 -6 35 -26t46 -48q14 -20 22.5 -35t16.5 -38l11 -31q2 -7 4 -22h-14q-10 36 -32 74q-7 11 -13 23q-12 18 -28 33q-11 9 -21 19
q-19 16 -38 19.5t-31 3.5q-20 0 -45 -11q-43 -19 -54 -57q-1 -2 -2.5 -11.5t-1.5 -15.5q0 -14 7 -35t27 -38h92v-48h-75v-452z" />
    <glyph glyph-name="m" unicode="m" horiz-adv-x="212" 
d="M-64 274q-18 -8 -25.5 -13t-25.5 -21v73q19 16 36 24t38 8q32 0 51.5 -5.5t43.5 -22.5q45 -31 58 -89q5 -23 5 -39q0 -13 -3 -29t-8 -34t-11 -31t-19 -33l-61 43q35 28 48 74q4 13 5 19q5 18 5 31q0 16 -10 32t-27.5 23t-38.5 7q-19 0 -27.5 -3t-33.5 -14zM212 452h-327
v48h327v-48z" />
    <glyph glyph-name="n" unicode="n" horiz-adv-x="528" 
d="M370 452h-370v48h528v-48h-100v-452l-58 55v246q-16 -4 -27 -10.5t-25 -17.5q-21 -17 -37 -45l-8 -14q-7 -13 -11 -25l-57 42l32 39q-9 25 -34 35q-15 6 -27 6q-5 0 -25 -5t-31.5 -18.5t-14 -26t-2.5 -35.5q0 -12 7.5 -24.5t11.5 -20.5q13 -23 35 -44q2 -2 27 -24l37 -31
l-14 -18q-5 3 -40 31l-37 31q-25 22 -33 30q-27 27 -39 60l-10 32q-5 16 -5 29q0 16 7 30q16 39 56 50q18 4 26 4q17 0 43.5 -9.5t48.5 -31.5q17 -17 26 -37l24 20q14 12 22 17t22 13t23 11l29 8v100z" />
    <glyph glyph-name="o" unicode="o" horiz-adv-x="467" 
d="M102 452h-102v48h467v-48h-100v-452l-57 55v129q-45 -49 -107 -49q-15 0 -23 1t-24 6q-42 11 -70 45q-20 24 -28 47t-8 56q33 0 57.5 16.5t31.5 46.5q3 14 3 26q0 49 -40 73zM166 452q13 -17 19.5 -39.5t6.5 -44.5q0 -18 -2 -26q-6 -32 -34 -62.5t-67 -39.5
q16 -52 70 -67q18 -4 25 -4q33 0 62 23t46 57t17 72v131h-143z" />
    <glyph glyph-name="p" unicode="p" horiz-adv-x="518" 
d="M346 452h-346v48h518v-48h-141q12 -17 21 -35t14.5 -41.5t5.5 -45.5q0 -28 -19 -53.5t-53 -31.5q33 -20 53 -53q13 -22 19 -36.5t6 -35.5q0 -42 -23 -73q-35 -46 -94 -46q-29 0 -49.5 8.5t-50.5 29.5q-22 15 -38 36l-28 43q-10 14 -26 43q-19 34 -23 42l-42 76l15 11
l27 -47q14 -24 24.5 -40t22.5 -32q21 -30 25 -35q14 -18 31 -31q26 -20 31 -23q29 -19 55 -19q9 0 14 1q33 6 53 30q10 13 14.5 29t4.5 37q0 47 -41 77q-21 -7 -31.5 -10t-24.5 -5t-26.5 -3t-27.5 -1l-28 72q9 -1 26 -2t24 -1q22 0 40 3q39 7 45 9q21 7 35 21.5t20 24
t8 24.5q3 21 -18 54q-7 11 -22 29z" />
    <glyph glyph-name="q" unicode="q" horiz-adv-x="445" 
d="M345 452v-452l-54 55v162l-168 -93l-22 51l180 101q-14 26 -42 45q-20 13 -24 15q-13 7 -27 7q-13 0 -20.5 -2.5t-24.5 -10.5l-64 -34l-27 54q36 24 74 32q16 3 25 4.5t18 1.5t32.5 -4.5t54.5 -33.5q26 -25 35 -47v149h-291v48h445v-48h-100z" />
    <glyph glyph-name="r" unicode="r" horiz-adv-x="556" 
d="M347 453h-347v48h347v-48zM53 314l-25 54h310v-56h-15q-9 0 -22 1q-27 0 -50.5 -2.5t-32.5 -8.5q-20 -16 -29 -28q-13 -17 -13 -35q0 -12 6 -27q10 -27 45 -30q24 -3 56 14q13 7 34 21q32 21 47 33q21 16 35 33v-75q-16 -14 -36 -26q-15 -9 -37 -20t-38 -15.5t-35 -4.5
q-9 0 -22.5 1.5t-28 11.5t-28 28t-19.5 31t-6 30q0 23 2.5 38t10.5 32h-109zM399 58v393h-68v50h225v-48h-100v-452z" />
    <glyph glyph-name="s" unicode="s" horiz-adv-x="566" 
d="M269 452h-269v48h566v-48h-239v-134q13 9 34.5 16t45.5 7q65 0 95 -64q13 -26 13 -54q0 -37 -28 -71q-15 -19 -30 -30t-36 -17l-23 45l20 9q21 10 34 19q37 27 37 63q0 16 -7 27q-8 16 -23.5 20.5t-39.5 4.5h-12q-22 0 -53 -32q-10 -10 -27 -33v-228l-58 55v105
q-13 -15 -42 -28t-59 -13q-49 0 -83.5 33.5t-34.5 81.5q0 46 21.5 82.5t60.5 36.5q63 0 86 -51l-13 -11q-17 6 -32 6q-27 0 -52 -19q-35 -28 -35 -68q0 -24 14 -39q7 -8 16 -12t19 -4q18 0 36.5 8.5t40.5 24t39 41.5q14 21 18 40v183z" />
    <glyph glyph-name="t" unicode="t" horiz-adv-x="487" 
d="M330 452h-330v48h487v-48h-100v-452l-57 57v250h-119q-48 0 -67.5 -3.5t-38.5 -27t-19 -56.5t24 -65l109 -139l-12 -14l-119 143q-21 26 -32 49t-11 49q0 15 5 33q12 39 42.5 62t71.5 23h166v91z" />
    <glyph glyph-name="u" unicode="u" horiz-adv-x="487" 
d="M487 501v-49h-100v-452l-58 55v397h-143v-254q1 -19 1 -28q0 -14 -3.5 -21t-13.5 -7q-15 0 -26 16l-79 105q-10 14 -13 19q-6 11 -2 20q4 10 20 10h64v140h-134v49h487z" />
    <glyph glyph-name="v" unicode="v" horiz-adv-x="561" 
d="M87 452h-87v48h561v-48h-100v-469l-56 72v23q-20 -22 -45 -32q-15 -6 -27 -9t-26 -3q-17 0 -40 6t-46 15t-43 23l-36 28q-24 18 -39 33q-19 18 -34 39l-21 30q-11 16 -15 30l-7 25q-4 12 -4 18q0 7 3 16t5 12q6 10 19 14q4 1 19 -1.5t22 -1.5q13 2 21 22.5t8 43.5
q0 42 -32 66zM145 452q10 -29 13.5 -45t3.5 -44q0 -20 -1.5 -32t-5.5 -32.5t-9 -33.5l-7 -22q-3 -9 -12 -24t-9 -26q0 -15 16 -32q9 -10 18 -19q25 -28 53 -42q22 -11 30.5 -14.5t27.5 -6t36 -2.5q25 0 51 11q31 14 51 41v60l-25 -13l-35 -16q-18 -8 -35 -8q-49 0 -82 39
q-15 17 -22 34t-7 40q0 25 3.5 39.5t17.5 32t34 24t49 6.5q15 0 25.5 -3t30.5 -11q12 -5 18.5 -8t29.5 -19v126h-258zM337 207q22 10 40 35t18 46q0 10 -4.5 16.5t-33 13t-50.5 6.5q-18 0 -26 -4q-22 -11 -36 -35.5t-14 -46.5q0 -10 3 -16q7 -12 22 -18.5t35 -6.5
q26 0 46 10z" />
    <glyph glyph-name="w" unicode="w" horiz-adv-x="463" 
d="M305 257v195h-67l-34 48h259v-48h-100v-452l-58 55v84q-24 -28 -52 -44q-18 -10 -30 -15.5t-25 -7.5l-27 -6q-14 -2 -21 -2q-16 0 -33 7q-31 12 -50 42t-19 62v12q2 8 2 12q4 32 28 64q16 21 39 35q-14 6 -23 11.5t-25 18.5t-23 20q-11 12 -15.5 25t-7.5 24.5t-3 20.5
q0 17 9 35q19 39 57 45q5 1 16 1q30 0 51 -22q9 -10 14.5 -22t5.5 -23q0 -7 -1.5 -16t-10.5 -20t-25 -19q-6 -3 -16.5 -4t-12.5 -1q-13 0 -24.5 1.5t-19.5 5.5q2 -18 15 -37q20 -28 51 -32l16 7q10 4 23 4h32l47 -49q-7 0 -15 1t-13 1h-13q-10 -2 -15 -2q-26 -4 -39 -8
t-29 -16q-21 -16 -29 -25q-12 -15 -13.5 -28.5t-1.5 -26.5t2.5 -20.5t11 -15.5t15.5 -10.5t20 -2.5q16 1 25 1q27 0 50 13l29 19q16 11 26.5 19.5t20.5 23.5q17 25 21.5 37t4.5 25zM109 394q20 0 35 11.5t15 30.5q0 18 -16.5 29.5t-37.5 11.5q-23 0 -40 -14.5t-14 -35.5
q3 -18 19 -25.5t39 -7.5z" />
    <glyph glyph-name="x" unicode="x" horiz-adv-x="403" 
d="M245 452h-245v48h403v-48h-100v-123h-151h-20q-12 0 -20 -2q-19 -6 -27.5 -11.5t-12.5 -19.5t1 -24l6 -15q9 -21 25 -35q15 10 26.5 15.5t25 9.5t27.5 7t31 3q39 0 72 -26q24 -21 36 -67q1 -4 1 -8v-6q0 -24 -16 -55q-11 -21 -31 -35l-36 41q23 8 38 32q5 8 8.5 16
t3.5 21q0 19 -21 38q-10 9 -26 9q-7 0 -22 -3l-23 -6q-27 -6 -45.5 -17.5t-32 -31t-18.5 -30t-5 -28.5q0 -16 5 -28t17 -28q9 -12 19 -19l29 -12l31 -8q11 -2 18 -2q10 -1 22 -1h33l-3 -21q-35 0 -39 1q-15 0 -23 1q-3 0 -17 2q-40 7 -56 16l-28 17q-25 15 -38 36
q-21 33 -21 67q0 10 2.5 33.5t34.5 52.5q-28 23 -35 50q-3 11 -7 23.5t-4 26.5q0 11 1 16t7 15q11 20 31 31q13 7 28.5 8t24.5 1h116v73z" />
    <glyph glyph-name="y" unicode="y" horiz-adv-x="489" 
d="M331 305v147h-76l-42 48h276v-48h-100v-452l-58 55v127q-13 -10 -25.5 -18t-28.5 -14.5t-29 -10.5t-28 -4q-22 0 -40 9l-25 13q-23 12 -38 27q-10 10 -30 36q-25 35 -37 64l23 3q25 4 37.5 8.5t23 9t25.5 18.5t22.5 25t9.5 26t2 20q0 16 -9 33.5t-19 25.5q-13 11 -30 11
q-37 0 -49 -30q-4 -9 -4 -20q0 -14 10 -31q16 -25 44 -25v-16q-17 0 -25 1.5t-20.5 8.5t-21.5 19q-2 2 -9 17q-13 25 -13 50q0 34 26 51q8 5 18.5 7t23.5 2q18 0 42 -18q11 -10 22.5 -19t29.5 -38q26 -41 26 -74q0 -24 -15 -43q-10 -13 -41 -35.5t-66 -27.5q24 -49 78 -59
q14 -2 21 -2q28 0 52 15t49 44q9 11 13.5 29.5t4.5 34.5z" />
    <glyph glyph-name="z" unicode="z" horiz-adv-x="563" 
d="M29 452h-29v48h56zM391 452h-109l-24 48h133v-48zM202 245q8 14 11 30.5t3 35.5q-27 -22 -72 -22q-38 4 -62 34t-24 72q0 45 26 78.5t67 33.5q35 0 60 -23q19 -18 40 -56q13 -24 15.5 -45.5t2.5 -61.5q0 -52 -21.5 -90.5t-65.5 -72.5l90 -142l-12 -16l-102 148
q-15 -7 -31 -7q-12 0 -19 2q-25 5 -41.5 18t-16.5 35q0 19 9 31.5t27 15.5q19 4 43 -17t24 -28q32 15 49 47zM406 55v397h-48v48h205v-48h-100v-452zM206 408q-5 32 -19 50q-17 23 -46 23q-17 0 -25.5 -17.5t-8.5 -42.5q0 -11 1 -18t4 -20q8 -30 25.5 -50t42.5 -14
q15 3 22.5 18t7.5 35q0 9 -1.5 19.5t-2.5 16.5z" />
    <glyph glyph-name="braceleft" unicode="{" horiz-adv-x="0" 
d="M-142 684q-13 -10 -18.5 -24t-5.5 -34q0 -14 2 -30t21 -54q6 -13 20 -34q-24 18 -39.5 43t-26 54t-10.5 54q0 20 7.5 35t26.5 24.5t40 9.5q13 0 31 -5q30 -10 48 -36q-4 3 -19 7.5t-29 4.5q-28 0 -48 -15z" />
    <glyph glyph-name="bar" unicode="|" horiz-adv-x="0" 
d="M-323 31l177 180v-65l-145 -146z" />
    <glyph glyph-name="braceright" unicode="}" horiz-adv-x="0" 
d="M-259 698q-16 7 -28.5 9.5t-33.5 2.5l-40 56q24 6 43 6h12q10 -2 15 -2q27 -5 46 -17t40 -35q14 -16 24 -37q6 -13 17.5 -45t18 -61.5t6.5 -64.5h-18q-14 15 -31 28t-31 20q-5 3 -34 16l-40 18q-20 10 -40 12.5t-36 2.5q-15 0 -36 -3l-22 66q56 0 109 -20q19 -7 35 -17
l33 -22q18 -12 32 -23l31 -27l30 -25q0 15 -2 24l-8 24q-7 21 -15 34t-23.5 32t-24.5 28q-13 13 -29 20z" />
    <glyph glyph-name="asciitilde" unicode="~" horiz-adv-x="357" 
d="M407 452h-407v49h407v-49zM156 312q-12 -4 -21 -10q-5 -3 -19 -14l-22 41q15 11 23 15q12 7 27 11t24.5 6t21.5 2q8 -1 12 -1q16 0 31 -7q7 -3 29.5 -18t38.5 -39q24 -12 52 -12q27 0 54 18v-49q-18 -11 -27.5 -14.5t-24.5 -3.5h-14q-18 0 -36 5q-11 -37 -42 -60
q-38 -30 -89 -30q-25 0 -42.5 6t-43.5 21q-11 6 -29 22q-6 5 -16 15v38l17 -20q20 -20 37 -28q36 -15 65 -15q11 0 31 2t34 7q22 8 34.5 29t12.5 43q0 14 -5 21.5t-18 17.5q-19 15 -43 15q-14 0 -23 -3t-29 -11z" />
    <glyph glyph-name="nonbreakingspace" unicode="&#xa0;" horiz-adv-x="333" 
 />
    <glyph glyph-name="exclamdown" unicode="&#xa1;" horiz-adv-x="280" 
d="M330 452h-330v48h330v-48zM330 373v-59h-163q36 -19 61 -50l27 -32q13 -19 13 -39q0 -17 -7 -30.5t-21 -29.5q-28 -32 -69 -39l39 -80l-19 -10l-44 78q-15 -6 -29 -6q-12 0 -23 4q-39 12 -49 51q-2 11 -3 16t-1 11q0 22 12.5 32t25.5 10q10 0 21 -4.5t25.5 -13.5
t24.5 -25q29 4 44 30q10 17 10 30q0 15 -10 29q-2 3 -22 24q-15 16 -37 24l-45 18l-41 20v41h280z" />
    <glyph glyph-name="cent" unicode="&#xa2;" horiz-adv-x="461" 
d="M121 240l15 -52q-11 0 -19 -4t-15 -8q-19 -12 -29 -23q-13 -15 -13 -31q0 -4 2 -12q10 -26 36 -30q14 -2 23.5 2t27 17t25.5 34q-35 36 -47 83q-3 12 -6 26.5t-3 23.5q0 10 5 27q10 29 36 47t59 18h85v94h-303v49h461v-49h-100v-147h-116q-20 0 -34.5 -4.5t-28.5 -15.5
q-31 -25 -31 -65q0 -25 6.5 -40.5t24 -26.5t34.5 -11q9 0 13 1q25 4 38 28q-6 12 -6 22q0 11 5 22.5t19 16t35 4.5q23 0 37.5 -12.5t18.5 -28.5t4 -24q0 -16 -11 -33t-29 -22l94 -95l-23 -20l-48 48q-14 -22 -34.5 -39.5t-35.5 -27t-28 -11.5t-28 -2q-17 0 -32 5t-29 18
q-29 26 -29 65q-17 -5 -29 -5q-17 0 -38 9q-48 20 -55 67q-1 4 -1 8v6q0 30 23 59q15 19 32.5 29t41.5 10zM283 33q29 20 43 51l-20 20q-22 0 -35 -2.5t-30 -12.5t-36 -20q-20 -14 -20 -33q0 -8 6 -22t22 -14q17 0 44 16q11 6 26 17z" />
    <glyph glyph-name="sterling" unicode="&#xa3;" horiz-adv-x="300" 
d="M350 240v-70q-17 -15 -32 -25.5t-33 -20.5l-38 -19q-20 -10 -42 -10q-29 0 -51 13.5t-41 38.5q-26 35 -26 76v12q2 9 2 13q7 46 43 78q-33 7 -57 32q-10 11 -16 20t-9 21t-3 23q0 15 7 30h-54v49h304v-49h-139q-37 0 -46 -32q-2 -8 -2 -12q0 -9 3.5 -18t12 -21t26.5 -20
l46 2l31 -2l41 -52q-26 0 -40 -1t-39.5 -9t-30.5 -11q-16 -8 -26.5 -23t-15 -27t-4.5 -27q0 -17 9.5 -30.5t22.5 -17.5t35 -4h17q21 0 38 13l36 27q16 9 35 24z" />
    <glyph glyph-name="yen" unicode="&#xa5;" horiz-adv-x="250" 
d="M300 452h-300v49h300v-49zM196 276q28 0 67 5q13 1 37 6v-66q-23 -3 -40 -3h-20q-10 0 -21 1q-22 0 -31.5 2.5t-39 12t-37 13t-26 14.5t-38.5 33v22q10 -6 22.5 -12.5t22.5 -9.5q26 -10 50 -14t54 -4z" />
    <glyph glyph-name="section" unicode="&#xa7;" horiz-adv-x="352" 
d="M205 452h-205v48h352v-48h-100v-108h-79q-22 0 -32.5 -1.5t-25.5 -8.5q-22 -11 -31 -20q-14 -14 -14 -33t9 -32.5t26.5 -24t39.5 -10.5q22 1 35 1q17 0 34.5 7t34.5 15l42 19l23 -42q-6 -4 -12 -7q-14 -10 -20 -12l-16 -7q-9 -4 -17 -6v-106h-75q-20 0 -31.5 -1.5
t-25.5 -7.5q-24 -10 -29 -14q-13 -9 -17 -23t-4 -22q0 -25 22 -49q10 -10 22.5 -13.5t30.5 -3.5h25q21 0 32.5 3.5t41.5 15.5q15 5 21 9q13 9 20 13l28 -39q-13 -9 -25 -16t-24 -12q-25 -11 -41.5 -15.5t-40.5 -4.5q-50 0 -91 31q-26 20 -40 40t-14 48q0 30 6.5 48.5
t27.5 35.5q30 24 63 24h70v53q-5 -1 -15 -1q-7 0 -23 2t-26 2q-15 1 -36 12.5t-31 23.5q-27 36 -27 76q0 48 30 75t69 27h63v59z" />
    <glyph glyph-name="dieresis" unicode="&#xa8;" 
 />
    <glyph glyph-name="ordfeminine" unicode="&#xaa;" horiz-adv-x="433" 
d="M275 452h-275v48h433v-48h-100v-162h-146q-28 0 -45 -8.5t-17 -28.5q0 -3 2 -11q7 -23 36 -23q12 -1 25 1q37 7 42 7q26 0 43.5 -4.5t37.5 -18.5t32 -31.5t15 -39.5t3 -28q0 -16 -2 -25q-5 -21 -20 -40q-31 -40 -83 -40q-27 0 -46.5 5.5t-47.5 21t-49 37.5q-4 4 -41 51
q-16 20 -31.5 43t-22.5 37l14 14q4 -10 24 -38q24 -34 43 -52q24 -23 44 -35.5t42 -15t30 -2.5q16 0 28 3.5t27 12.5q20 13 29 22q13 14 13 31q0 16 -3.5 26t-12 14.5t-14.5 4.5q-7 0 -18 -5l-20 -8q-3 -1 -21 -6t-27 -5q-7 0 -16.5 2t-18 6t-15.5 14l-62 95q-12 19 -12 35
q0 5 4 17q8 18 33 26q3 1 10 1.5t13 1.5h19h124v98zM357 242l38 38l38 -38l-38 -38z" />
    <glyph glyph-name="guillemotleft" unicode="&#xab;" horiz-adv-x="0" 
d="M-153 -71l-111 -109l-29 28l127 127l101 -101l-16 -16z" />
    <glyph glyph-name="degree" unicode="&#xb0;" horiz-adv-x="427" 
d="M249 134q-44 0 -89 26.5t-80 72.5q-8 10 -16 22q-13 18 -21 38h13q13 -24 27 -41q11 -12 37 -34q23 -19 47 -30t53 -11q33 0 60 20.5t24 46.5q0 11 -8.5 17.5t-22.5 6.5q-16 0 -39.5 -9.5t-34.5 -9.5q-8 0 -12 1q-21 4 -34.5 14t-30 30.5t-21.5 29.5q-10 18 -10 34
q0 5 2 15.5t18.5 16.5t42.5 6h124v56h-278v48h427v-48h-100v-100h-143q-20 0 -35 -7t-14 -22q0 -13 18 -19q10 -3 20 -5q12 -2 28.5 3.5t26.5 5.5q26 0 42.5 -7.5t37.5 -25.5q18 -15 27.5 -30t9.5 -35q0 -34 -30.5 -55t-65.5 -21zM228 144h57v-80h-124q-30 0 -53.5 -12
t-28.5 -37q-1 -3 -1 -7v-4q0 -21 15 -39q12 -14 38 -30t56 -16q12 0 27 3q-20 18 -20 47q0 6 3.5 22.5t22.5 29.5t44 13q31 0 55 -19t24 -47q0 -39 -33 -62q-28 -20 -71 -25q-7 -1 -21 -1q-22 0 -41 6.5t-43 20.5q-53 32 -68.5 53.5t-15.5 47.5v9q4 40 35.5 65.5t74.5 25.5
h68v36zM285 -66q12 7 20 19t8 24q0 9 -4 14q-9 15 -27 15t-37 -14q-24 -18 -24 -40q0 -8 6.5 -18t24.5 -10t33 10z" />
    <glyph glyph-name="plusminus" unicode="&#xb1;" horiz-adv-x="512" 
d="M463 225h-413v55h413v-55zM282 459v-414h-55v414h55z" />
    <glyph glyph-name="acute" unicode="&#xb4;" horiz-adv-x="733" 
d="M214 262h146v-59h-148q0 -20 -10 -48q-3 -12 -7 -24t-15 -14q-10 -2 -18 1.5t-15 13.5l-64 83q-9 12 -11 17q-5 11 -1 19q3 6 9.5 8.5t23.5 2.5h53v82q-14 0 -27 0.5t-31 5.5q-26 8 -41 17q-19 12 -28 33t-9 44q0 39 28 56q11 7 24 7q17 0 39 -14q10 -7 38 -30
q16 -14 27 -32t25 -68q7 -27 9.5 -47t2.5 -54zM743 452h-327v-452l-56 55v396h-90l-48 49h521v-48zM467 274q-18 -8 -25.5 -13t-25.5 -21v73q19 16 36 24t38 8q32 0 51.5 -5.5t43.5 -22.5q45 -31 58 -89q5 -23 5 -39q0 -13 -3 -29t-8 -34t-11 -31t-19 -33l-61 43
q35 28 48 74q4 13 5 19q5 18 5 31q0 16 -10 32t-27.5 23t-38.5 7q-19 0 -27.5 -3t-33.5 -14zM61 396q19 -36 62 -36q17 0 34 9q4 16 4 25q0 29 -21 52q-12 14 -25.5 22t-27.5 8q-10 0 -19 -6q-17 -11 -17 -35q0 -19 10 -39z" />
    <glyph glyph-name="paragraph" unicode="&#xb6;" horiz-adv-x="349" 
d="M204 452h-204v48h349v-48h-100v-78q30 -14 46 -45q7 -14 9 -28t2 -33q0 -25 -17.5 -47.5t-44.5 -26.5v-68q36 -22 51 -61q10 -24 10 -47q-1 -8 -1 -12q-2 -23 -8 -37t-23 -29.5t-36.5 -19t-53.5 -3.5q-50 0 -88 30q-21 17 -33.5 36t-15 41.5t-2.5 31.5q0 30 19 49
q14 14 35 24t45 10h55v49q-15 -3 -27 -3t-34 5q-20 6 -34.5 17.5t-27.5 30.5q-25 35 -25 74q0 54 47 78q13 6 25 7.5t34 1.5h48v53zM192 230q36 6 62 24q30 21 30 49q0 4 -2 14q-5 20 -21.5 28.5t-41.5 8.5q-12 0 -21.5 -1t-40 -8.5t-50.5 -21.5q-27 -19 -27 -49
q2 -25 23 -36t54 -11q18 0 35 3zM192 -32q36 6 62 24q30 21 30 49q0 4 -2 14q-5 20 -21.5 28.5t-41.5 8.5q-12 0 -21.5 -1t-40 -8.5t-50.5 -21.5q-27 -19 -27 -49q2 -25 23 -36t54 -11q18 0 35 3z" />
    <glyph glyph-name="questiondown" unicode="&#xbf;" horiz-adv-x="596" 
d="M201 308l-2 62h21q11 0 21.5 -2t20.5 -7t19 -11q17 10 35 16t37 6q32 0 60 -15q14 -7 34 -21q28 -19 50 -53q7 -11 24 -41q13 -23 20 -37.5t14 -34.5l10 -34h-26q-5 15 -10 26l-12 24l-20 46q-11 23 -28 40q-25 25 -35 32q-20 14 -43 14q-34 0 -62 -22q-17 -13 -31 -30.5
t-14 -32.5q0 -11 6.5 -19t14.5 -11.5t20 -3.5q14 0 35.5 5t42.5 24l48 -60q-20 -13 -39 -18.5t-45 -5.5q-66 0 -100 50q-9 14 -14.5 36t-5.5 39v13q2 7 2 10q-14 12 -25.5 14.5t-22.5 1.5zM596 452h-392q18 -39 18 -85q0 -45 -47 -99q-37 -43 -58 -51q0 -19 6 -33
q2 -4 10 -19q4 -7 11.5 -15.5t14.5 -15.5l100 -120l-12 -14l-110 124q-50 56 -70.5 82t-25.5 36.5t-9 20.5t-4 19q0 3 2 11q7 19 14.5 24.5t22.5 5.5q11 -1 18 -1h46q35 23 35 57q0 31 -5 45t-23 28h-138v48h596v-48z" />
    <glyph glyph-name="Agrave" unicode="&#xc0;" horiz-adv-x="265" 
 />
    <glyph glyph-name="Aacute" unicode="&#xc1;" horiz-adv-x="265" 
 />
    <glyph glyph-name="Acircumflex" unicode="&#xc2;" horiz-adv-x="265" 
 />
    <glyph glyph-name="Atilde" unicode="&#xc3;" horiz-adv-x="265" 
 />
    <glyph glyph-name="Adieresis" unicode="&#xc4;" horiz-adv-x="265" 
 />
    <glyph glyph-name="Aring" unicode="&#xc5;" horiz-adv-x="441" 
d="M283 452h-283v48h441v-48h-100v-137h-216q-17 2 -24 2q-8 0 -13 -4q-13 -10 -13 -26q0 -9 5 -18q1 -2 11 -18.5t29 -27.5q15 8 23 11q27 12 44 15q30 6 53 6q17 0 24.5 -1.5t27 -9t31 -15t21.5 -23.5l11 -18q6 -10 6 -27q0 -31 -22 -54q-11 -11 -26.5 -15.5t-31.5 -8.5
q-2 -1 -17.5 -3.5t-22.5 -8t-11 -9.5t-4 -11t3 -10.5t18 -15.5q11 -9 25 -15q4 -2 29 -10l26 -7q20 -6 40 -6v-50q-17 0 -26 2q-16 5 -25 7q-43 11 -73 39q-22 20 -30 31q-13 18 -13 40q0 21 5.5 36t19.5 23.5t34.5 16t26.5 9.5q29 12 36 19t7 20q0 14 -9.5 19.5t-25.5 11
t-29 5.5q-15 0 -35 -5.5t-31 -10.5q-5 -2 -29 -16l-23 -14q-19 -13 -29 -31q-16 -28 -16 -62q0 -19 6 -33q3 -7 32 -46q16 -23 37 -39q15 -12 48.5 -31t75.5 -33q57 -19 113 -24v-24q-41 4 -74.5 11.5t-50 11.5t-42.5 14t-39.5 17.5t-42.5 27.5q-33 23 -46 34
q-21 19 -37.5 46t-24 51t-7.5 56q0 17 4.5 30.5t14.5 29.5q7 10 18.5 20.5t17.5 13.5q-26 20 -40 49q-9 18 -12 27t-3 23q0 28 23 45q9 7 22.5 10t27.5 3h160v85z" />
    <glyph glyph-name="AE" unicode="&#xc6;" horiz-adv-x="365" 
d="M118 552l38 37l38 -38q0 -9 -2 -18.5t-4 -22t-5 -29.5t-9.5 -34.5t-10.5 -23.5q-9 -13 -13 -20q-9 -16 -18.5 -26.5t-14.5 -15.5l-17 17q19 18 31 43q8 18 10.5 25t2.5 19q0 10 -1.5 17.5t-5 21t-8.5 26.5zM238 552l38 37l38 -38q0 -9 -2 -18.5t-4 -22t-5 -29.5
t-9.5 -34.5t-10.5 -23.5q-9 -13 -13 -20q-9 -16 -18.5 -26.5t-14.5 -15.5l-17 17q19 18 31 43q8 18 10.5 25t2.5 19q0 10 -1.5 17.5t-5 21t-8.5 26.5z" />
    <glyph glyph-name="Egrave" unicode="&#xc8;" horiz-adv-x="327" 
 />
    <glyph glyph-name="Eacute" unicode="&#xc9;" horiz-adv-x="327" 
 />
    <glyph glyph-name="Ecircumflex" unicode="&#xca;" horiz-adv-x="327" 
 />
    <glyph glyph-name="Edieresis" unicode="&#xcb;" horiz-adv-x="327" 
d="M275 452h-275v48h433v-48h-100v-72h-146q-23 0 -45 -1t-25.5 -5.5t-3.5 -14.5q0 -7 7 -29.5t45 -22.5q11 0 30 9t31 9q31 0 47 -3.5t39 -20t35.5 -34.5t12.5 -43q0 -9 -2 -20t-11 -25q-2 -4 -14 -17q-34 -40 -83 -40q-23 -2 -45 6q-11 4 -42 20.5t-51 36.5q-15 15 -40 52
q-12 19 -23.5 41t-16.5 35q4 -10 24 -38q24 -34 43 -52q24 -23 44 -35.5t36.5 -14.5t22.5 -2h11q15 0 29 3t29 12l23 15q22 16 22 38q0 25 -22 38q-11 6 -21 6q-7 0 -17 -3l-19 -6q-9 -2 -26 -11.5t-28 -7.5q-25 4 -41 23l-58 63q-11 13 -11 29q0 7 3 15q8 18 33 26
q3 1 10 1.5t13 1.5h19h124v38zM354 336l29 28l28 -28l-28 -29zM164 148h32v-153v-13q0 -20 -10 -20q-11 0 -16 9l-47 63q-5 8 -8 13.5t-1 10.5q2 6 12 6h38v84zM316 173v-272l-34 33v239h34z" />
    <glyph glyph-name="Igrave" unicode="&#xcc;" horiz-adv-x="347" 
d="M361 253v199h-361v48h518v-48h-100v-452l-57 57v148l-168 -58q4 -9 6 -14q8 -18 10 -25.5t6 -24.5t4 -23q0 -7 -2 -9q-6 -7 -14 -7q-11 0 -27 17l-26 31q-20 23 -21 24q-9 13 -9 29t10 25.5t51 28.5q25 11 69 24t49 13q-11 24 -24.5 40t-36.5 31q-35 22 -58 32.5
t-36 10.5q-21 0 -28 -19q-3 -8 -3 -15q0 -4 1 -13t1 -14q1 -13 1 -20q0 -19 -7.5 -27t-13.5 -8q-14 0 -26.5 24.5t-18.5 51.5q-2 8 -3 15.5t-1 16.5q0 19 11 32.5t26 17t36 3.5q32 0 58 -11q16 -7 51 -30t56 -48t37 -62z" />
    <glyph glyph-name="Iacute" unicode="&#xcd;" horiz-adv-x="347" 
d="M275 452h-275v48h433v-48h-100v-72h-146q-23 0 -45 -1t-25.5 -5.5t-3.5 -14.5q0 -7 7 -29.5t45 -22.5q11 0 30 9t31 9q31 0 47 -3.5t39 -20t35.5 -34.5t12.5 -43q0 -9 -2 -20t-11 -25q-2 -4 -14 -17q-34 -40 -83 -40q-24 0 -42 6t-45 20q-31 17 -51 37q-15 15 -40 52
q-12 19 -23.5 41t-16.5 35q4 -10 24 -38q24 -34 43 -52q25 -24 41 -34q22 -14 44.5 -16.5t29.5 -2.5q28 0 56 16q15 9 24 15q22 16 22 38q0 24 -22 38q-11 6 -21 6q-7 0 -17 -3t-18 -5t-26 -11t-31 -9q-9 0 -17.5 4t-21.5 19l-58 63q-11 13 -11 29q0 7 3.5 16.5t10 14.5
t22.5 10q3 1 10 1.5t13 1.5h19h124v38zM354 336l29 28l28 -28l-28 -29zM251 155v-66q5 3 17.5 7t22.5 4q33 0 47 -32q6 -14 6 -27q0 -18 -13.5 -36t-32.5 -23l-12 23q6 3 9 4q12 6 18 10q18 14 18 32q0 7 -4 14.5t-11.5 9t-24.5 1.5q-11 0 -27 -16q-5 -5 -13 -16v-114
l-29 27v53q-6 -8 -20.5 -14.5t-30.5 -6.5q-23 0 -41 17t-18 41q0 23 10.5 41t30.5 18q31 0 43 -25l-6 -6q-9 3 -17 3q-13 0 -25 -9q-17 -14 -17 -35q0 -11 6.5 -18.5t16.5 -7.5q9 0 19.5 5t20.5 11.5t18 18.5t10 21v91h29z" />
    <glyph glyph-name="Icircumflex" unicode="&#xce;" horiz-adv-x="347" 
d="M275 452h-275v48h433v-48h-100v-72h-146q-23 0 -45 -1t-25.5 -5.5t-3.5 -14.5q0 -7 7 -29.5t45 -22.5q11 0 30 9t31 9q31 0 47 -3.5t39 -20t35.5 -34.5t12.5 -43q0 -9 -2 -20t-11 -25q-2 -4 -14 -17q-34 -40 -83 -40q-23 -2 -45 6q-11 4 -42 20.5t-51 36.5q-15 15 -40 52
q-12 19 -23.5 41t-16.5 35q4 -10 24 -38q24 -34 43 -52q24 -23 44 -35.5t36.5 -14.5t22.5 -2h11q15 0 29 3t29 12l23 15q22 16 22 38q0 25 -22 38q-11 6 -21 6q-7 0 -17 -3l-19 -6q-9 -2 -26 -11.5t-28 -7.5q-25 4 -41 23l-58 63q-11 13 -11 29q0 7 3 15q8 18 33 26
q3 1 10 1.5t13 1.5h19h124v38zM354 336l29 28l28 -28l-28 -29zM123 176h210v-262l-31 41v13q-10 -13 -26.5 -19t-29.5 -6q-18 0 -49 12q-10 4 -22 12q-6 4 -19.5 14.5t-24 21t-17.5 20t-13 18.5t-8 18l-4 16q-2 6 0 13q5 16 13 16q14 -2 22 -2q7 0 12 12t5 25q0 23 -18 37z
M263 40q12 6 22 19.5t10 24.5q0 5 -2.5 8.5t-18.5 7.5t-30 4q-6 0 -12 -2q-15 -6 -22.5 -25t-3.5 -29q7 -13 32 -13q16 0 25 5zM156 176q4 -9 7 -20.5t3 -29.5q0 -13 -2 -22.5t-3.5 -19.5t-2.5 -12l-6 -15q-6 -13 -11 -25q0 -8 8 -16l11 -12q14 -15 30 -24q5 -3 12 -6.5
t20 -5.5t18 -2q6 0 11.5 1t21 7t26.5 22v33l-14 -7q-10 -5 -19.5 -9t-19.5 -4q-27 0 -44.5 20.5t-17.5 42.5q0 13 2 21.5t9.5 18t18.5 13t28 3.5q9 0 18 -3l15 -6q7 -2 25 -14v71h-144z" />
    <glyph glyph-name="Idieresis" unicode="&#xcf;" horiz-adv-x="347" 
 />
    <glyph glyph-name="Ntilde" unicode="&#xd1;" horiz-adv-x="314" 
 />
    <glyph glyph-name="Ograve" unicode="&#xd2;" horiz-adv-x="404" 
d="M83 458q-7 7 -7 17q0 9 7 18q9 7 18 7q10 0 17 -7t7 -18t-7 -17q-6 -7 -17 -7t-18 7zM283 458q-7 7 -7 17q0 9 7 18q9 7 18 7q10 0 17 -7t7 -18t-7 -17q-6 -7 -17 -7t-18 7zM483 458q-7 7 -7 17q0 9 7 18q9 7 18 7q10 0 17 -7t7 -18t-7 -17q-6 -7 -17 -7t-18 7z" />
    <glyph glyph-name="Oacute" unicode="&#xd3;" horiz-adv-x="404" 
 />
    <glyph glyph-name="Ocircumflex" unicode="&#xd4;" horiz-adv-x="404" 
 />
    <glyph glyph-name="Otilde" unicode="&#xd5;" horiz-adv-x="404" 
 />
    <glyph glyph-name="Odieresis" unicode="&#xd6;" horiz-adv-x="404" 
d="M463 150h-413v55h413v-55zM463 300h-413v55h413v-55z" />
    <glyph glyph-name="Oslash" unicode="&#xd8;" horiz-adv-x="542" 
d="M388 452h-388v48h542v-48h-100v-452l-60 58v115q-14 -15 -48.5 -31.5t-66.5 -16.5q-62 0 -107 43t-45 105q23 -9 42 -9q14 0 34 6q31 9 34 11q17 9 17 26q0 20 -19 26.5t-50 6.5h-125v54h92q52 0 92.5 -25.5t40.5 -71.5q0 -43 -40 -68q-30 -19 -63 -19q22 -36 63 -43
q5 -1 16 -1q21 0 42 11q13 7 39 27q31 24 40 34q18 21 18 47v167z" />
    <glyph glyph-name="Ugrave" unicode="&#xd9;" horiz-adv-x="260" 
d="M25 362l38 38l38 -38l-38 -38zM25 52l38 37l38 -38q0 -9 -2 -18.5t-4 -22t-5 -29.5t-9.5 -34.5t-10.5 -23.5q-9 -13 -13 -20q-9 -16 -18.5 -26.5t-14.5 -15.5l-17 17q19 18 31 43q8 18 10.5 25t2.5 19q0 10 -1.5 17.5t-5 21t-8.5 26.5z" />
    <glyph glyph-name="Uacute" unicode="&#xda;" horiz-adv-x="260" 
d="M68 552l38 37l38 -38q0 -9 -2 -18.5t-4 -22t-5 -29.5t-9.5 -34.5t-10.5 -23.5q-9 -13 -13 -20q-9 -16 -18.5 -26.5t-14.5 -15.5l-17 17q19 18 31 43q8 18 10.5 25t2.5 19q0 10 -1.5 17.5t-5 21t-8.5 26.5z" />
    <glyph glyph-name="Ucircumflex" unicode="&#xdb;" horiz-adv-x="260" 
d="M27 38l38 38l38 -38l-38 -38zM65 548q16 0 27 -11t11 -27l-33 -373h-10l-33 373q0 15 11.5 26.5t26.5 11.5z" />
    <glyph glyph-name="Udieresis" unicode="&#xdc;" horiz-adv-x="260" 
d="M155 517q56 0 87 -28q36 -32 36 -98q0 -58 -35 -90t-88 -32q-51 0 -88.5 37.5t-37.5 85.5t37.5 86.5t88.5 38.5zM350 245q56 0 87 -28q36 -32 36 -98q0 -57 -35 -89t-88 -32q-51 0 -88.5 37.5t-37.5 85.5t37 86t89 38zM109 29l284 474v-37l-284 -474v37zM417 118
q0 48 -14 78q-18 39 -55 39q-33 0 -49.5 -31.5t-16.5 -73.5q0 -48 13 -78q17 -39 53 -39q35 0 52 28.5t17 76.5zM222 389q0 48 -14 78q-18 39 -55 39q-33 0 -49.5 -31.5t-16.5 -73.5q0 -48 13 -78q17 -39 53 -39q35 0 52 28.5t17 76.5z" />
    <glyph glyph-name="Yacute" unicode="&#xdd;" horiz-adv-x="280" 
d="M282 195q-23 -11 -45 -15t-45 -4q-25 0 -55 3q-14 0 -35 11t-32 25q-27 36 -27 76q0 48 30 75t69 27h63v59h-205v48h345v-48h-93v-108h-79q-22 0 -32.5 -1.5t-25.5 -8.5q-22 -11 -31 -20q-14 -14 -14 -33t9 -32.5t26.5 -24t39.5 -10.5q22 1 35 1q19 0 43 10q13 5 24.5 10
t18.5 9l25 12l23 -42q-6 -4 -12 -7q-14 -10 -20 -12zM206 188l46 6v-68q36 -22 51 -61q10 -24 10 -47q-1 -8 -1 -12q-2 -23 -8 -37t-23 -29.5t-36.5 -19t-53.5 -3.5q-50 0 -88 30q-22 17 -33.5 36t-14.5 41.5t-3 29.5q0 31 19 51q11 12 34 23t46 11h55v49zM200 -32
q36 6 62 24q30 21 30 49q0 4 -2 14q-5 20 -21.5 28.5t-41.5 8.5q-12 0 -21.5 -1t-40 -8.5t-50.5 -21.5q-27 -19 -27 -49q2 -25 23 -36t54 -11q18 0 35 3z" />
    <glyph glyph-name="Thorn" unicode="&#xde;" horiz-adv-x="0" 
d="M-233 -83l38 38l38 -38l-38 -38z" />
    <glyph glyph-name="germandbls" unicode="&#xdf;" horiz-adv-x="541" 
d="M213 452h-213v48h541v-48h-100v-452l-58 55v74h-110v-34q0 -17 -16 -22q-7 -2 -14.5 0.5t-17.5 15.5l-39 44q-9 12 -11 15q-5 9 -2 17q5 12 26 12h39v30q0 21 -22 21q-11 1 -37 -8q-17 -6 -26 -6q-26 0 -43.5 6.5t-33.5 24.5q-27 30 -27 62q1 6 1 9q0 33 30 54q10 7 24 9
t30 2h79v71zM271 452v-120h-143q-18 0 -32 -11q-8 -6 -12 -11.5t-4 -13.5q0 -16 16 -27q7 -6 20 -6q10 1 16 1q7 0 22.5 3.5t25.5 3.5q20 1 29 1q13 0 21 -3q26 -9 41 -40q6 -12 8 -24t2 -28h102v275h-112z" />
    <glyph glyph-name="agrave" unicode="&#xe0;" horiz-adv-x="474" 
 />
    <glyph glyph-name="aacute" unicode="&#xe1;" horiz-adv-x="474" 
 />
    <glyph glyph-name="acircumflex" unicode="&#xe2;" horiz-adv-x="474" 
 />
    <glyph glyph-name="atilde" unicode="&#xe3;" horiz-adv-x="474" 
 />
    <glyph glyph-name="adieresis" unicode="&#xe4;" horiz-adv-x="474" 
 />
    <glyph glyph-name="aring" unicode="&#xe5;" horiz-adv-x="474" 
d="M103 -8q-23 20 -23 52q0 23 12.5 46t38.5 33q-59 30 -77 93q-3 11 -6 25t-3 24q0 15 5 28q10 29 36 47t59 18h85v94h-230v49h388v-49h-100v-147h-116q-20 0 -34.5 -4.5t-28.5 -15.5q-31 -25 -31 -65q0 -25 6.5 -40.5t24 -26.5t34.5 -11q9 0 13 1q25 4 38 28q-6 12 -6 22
q0 11 5 22.5t19 16t35 4.5q23 0 37.5 -12.5t18.5 -28.5t4 -24q0 -16 -11 -33t-29 -22l94 -95l-23 -20l-48 48q-14 -22 -34.5 -39.5t-35.5 -27t-28 -11.5t-26 -2q-36 0 -63 23zM210 33q29 20 43 51l-20 20q-22 0 -35 -2.5t-30 -12.5t-36 -20q-20 -14 -20 -33q0 -8 6 -22
t22 -14q17 0 44 16q11 6 26 17z" />
    <glyph glyph-name="ae" unicode="&#xe6;" horiz-adv-x="347" 
d="M246 390l-38 -37l-38 38q0 9 2 20l4 22l5 28q3 17 11 37q3 9 7 16q10 16 15 25q9 16 18.5 26.5t14.5 15.5l17 -17q-19 -18 -31 -43q-8 -18 -9 -21q-4 -11 -4 -23q0 -10 1.5 -17.5t5 -21t8.5 -25.5t11 -23zM126 390l-38 -37l-38 38q0 9 2 20l4 22l5 28q3 17 11 37
q3 9 7 16q10 16 15 25q9 16 18.5 26.5t14.5 15.5l17 -17q-19 -18 -31 -43q-8 -18 -9 -21q-4 -11 -4 -23q0 -10 1.5 -17.5t5 -21t8.5 -25.5t11 -23z" />
    <glyph glyph-name="ccedilla" unicode="&#xe7;" horiz-adv-x="762" 
d="M164 396q-19 -5 -43.5 -21t-28.5 -21l-30 68q12 9 41 18q37 12 69 12q8 0 22 -2q47 -9 73 -26q31 -21 43 -60q8 -29 8 -46q0 -22 -8.5 -38t-27.5 -36q17 -7 32 -12t25 -5q19 0 38 10t41 37l92 130q25 25 44 36q24 14 54 14q43 0 73.5 -39.5t30.5 -88.5q0 -46 -27 -82
t-69 -36q-40 0 -75 41q-29 34 -29 53q-3 -11 -28 -44q-29 -38 -50 -50l-31 -18q-13 -6 -27 -6q-19 0 -64 16q30 -33 30 -84v-12q-2 -8 -2 -12q-9 -52 -35 -71q-19 -14 -69 -21q-4 -1 -13 -1q-53 0 -116 58q-57 52 -57 73l16 16q5 -14 46 -46q50 -39 90 -39q7 1 10 1
q35 4 55 18q24 17 31 46q2 7 2 21q0 53 -48 75q-9 -7 -19 -14t-21 -12q-20 -9 -26.5 -11.5t-21.5 -4.5l-36 62q4 0 29.5 11t56 27t47 33t16.5 36q0 10 -6 25t-21 22.5t-35 7.5q-14 0 -21.5 -1.5t-29.5 -6.5zM368 500q-50 0 -87 26t-55 74q41 -58 120 -58q71 0 112 64l42 -40
q-46 -66 -132 -66zM308 636l38 38l38 -38l-38 -38zM682 334q0 28 -13 48.5t-39 25.5q-3 1 -10 1h-2q-21 0 -46 -21q-30 -25 -30 -55v-5q0 -28 20 -47t48 -19q30 0 51 21t21 51z" />
    <glyph glyph-name="egrave" unicode="&#xe8;" horiz-adv-x="516" 
 />
    <glyph glyph-name="eacute" unicode="&#xe9;" horiz-adv-x="516" 
 />
    <glyph glyph-name="ecircumflex" unicode="&#xea;" horiz-adv-x="516" 
 />
    <glyph glyph-name="edieresis" unicode="&#xeb;" horiz-adv-x="516" 
 />
    <glyph glyph-name="igrave" unicode="&#xec;" horiz-adv-x="244" 
 />
    <glyph glyph-name="iacute" unicode="&#xed;" horiz-adv-x="244" 
 />
    <glyph glyph-name="icircumflex" unicode="&#xee;" horiz-adv-x="244" 
 />
    <glyph glyph-name="idieresis" unicode="&#xef;" horiz-adv-x="244" 
 />
    <glyph glyph-name="ntilde" unicode="&#xf1;" horiz-adv-x="528" 
 />
    <glyph glyph-name="ograve" unicode="&#xf2;" horiz-adv-x="467" 
 />
    <glyph glyph-name="oacute" unicode="&#xf3;" horiz-adv-x="467" 
 />
    <glyph glyph-name="ocircumflex" unicode="&#xf4;" horiz-adv-x="467" 
 />
    <glyph glyph-name="otilde" unicode="&#xf5;" horiz-adv-x="467" 
 />
    <glyph glyph-name="divide" unicode="&#xf7;" horiz-adv-x="505" 
d="M109 29l284 474v-37l-284 -474v37z" />
    <glyph glyph-name="ugrave" unicode="&#xf9;" horiz-adv-x="487" 
 />
    <glyph glyph-name="uacute" unicode="&#xfa;" horiz-adv-x="487" 
 />
    <glyph glyph-name="ucircumflex" unicode="&#xfb;" horiz-adv-x="487" 
 />
    <glyph glyph-name="udieresis" unicode="&#xfc;" horiz-adv-x="487" 
 />
    <glyph glyph-name="yacute" unicode="&#xfd;" horiz-adv-x="489" 
 />
    <glyph glyph-name="ydieresis" unicode="&#xff;" horiz-adv-x="489" 
 />
    <glyph glyph-name="Cacute" unicode="&#x106;" horiz-adv-x="657" 
 />
    <glyph glyph-name="cacute" unicode="&#x107;" horiz-adv-x="532" 
 />
    <glyph glyph-name="Ccircumflex" unicode="&#x108;" horiz-adv-x="657" 
 />
    <glyph glyph-name="ccircumflex" unicode="&#x109;" horiz-adv-x="532" 
 />
    <glyph glyph-name="Cdotaccent" unicode="&#x10a;" horiz-adv-x="657" 
 />
    <glyph glyph-name="cdotaccent" unicode="&#x10b;" horiz-adv-x="532" 
 />
    <glyph glyph-name="Ccaron" unicode="&#x10c;" horiz-adv-x="657" 
 />
    <glyph glyph-name="ccaron" unicode="&#x10d;" horiz-adv-x="532" 
 />
    <glyph glyph-name="Dcaron" unicode="&#x10e;" horiz-adv-x="307" 
 />
    <glyph glyph-name="dcaron" unicode="&#x10f;" 
 />
    <glyph glyph-name="Edotaccent" unicode="&#x116;" horiz-adv-x="327" 
 />
    <glyph glyph-name="edotaccent" unicode="&#x117;" horiz-adv-x="516" 
 />
    <glyph glyph-name="Ecaron" unicode="&#x11a;" horiz-adv-x="327" 
 />
    <glyph glyph-name="ecaron" unicode="&#x11b;" horiz-adv-x="516" 
 />
    <glyph glyph-name="Gcircumflex" unicode="&#x11c;" horiz-adv-x="259" 
 />
    <glyph glyph-name="gcircumflex" unicode="&#x11d;" horiz-adv-x="468" 
 />
    <glyph glyph-name="Gdotaccent" unicode="&#x120;" horiz-adv-x="259" 
 />
    <glyph glyph-name="gdotaccent" unicode="&#x121;" horiz-adv-x="468" 
 />
    <glyph glyph-name="uni0122" unicode="&#x122;" horiz-adv-x="259" 
 />
    <glyph glyph-name="Hcircumflex" unicode="&#x124;" horiz-adv-x="345" 
 />
    <glyph glyph-name="hcircumflex" unicode="&#x125;" horiz-adv-x="553" 
 />
    <glyph glyph-name="Itilde" unicode="&#x128;" horiz-adv-x="347" 
 />
    <glyph glyph-name="itilde" unicode="&#x129;" horiz-adv-x="244" 
 />
    <glyph glyph-name="Idotaccent" unicode="&#x130;" horiz-adv-x="347" 
 />
    <glyph glyph-name="Jcircumflex" unicode="&#x134;" horiz-adv-x="270" 
 />
    <glyph glyph-name="jcircumflex" unicode="&#x135;" horiz-adv-x="452" 
 />
    <glyph glyph-name="uni0136" unicode="&#x136;" horiz-adv-x="224" 
 />
    <glyph glyph-name="uni0137" unicode="&#x137;" horiz-adv-x="427" 
 />
    <glyph glyph-name="Lacute" unicode="&#x139;" horiz-adv-x="208" 
 />
    <glyph glyph-name="lacute" unicode="&#x13a;" horiz-adv-x="183" 
 />
    <glyph glyph-name="uni013B" unicode="&#x13b;" horiz-adv-x="208" 
 />
    <glyph glyph-name="uni013C" unicode="&#x13c;" horiz-adv-x="183" 
 />
    <glyph glyph-name="Lcaron" unicode="&#x13d;" 
 />
    <glyph glyph-name="lcaron" unicode="&#x13e;" 
 />
    <glyph glyph-name="Nacute" unicode="&#x143;" horiz-adv-x="314" 
 />
    <glyph glyph-name="nacute" unicode="&#x144;" horiz-adv-x="528" 
 />
    <glyph glyph-name="uni0145" unicode="&#x145;" horiz-adv-x="314" 
 />
    <glyph glyph-name="uni0146" unicode="&#x146;" horiz-adv-x="528" 
 />
    <glyph glyph-name="Ncaron" unicode="&#x147;" horiz-adv-x="314" 
 />
    <glyph glyph-name="ncaron" unicode="&#x148;" horiz-adv-x="528" 
 />
    <glyph glyph-name="Racute" unicode="&#x154;" horiz-adv-x="338" 
 />
    <glyph glyph-name="racute" unicode="&#x155;" horiz-adv-x="556" 
 />
    <glyph glyph-name="uni0156" unicode="&#x156;" horiz-adv-x="338" 
 />
    <glyph glyph-name="uni0157" unicode="&#x157;" horiz-adv-x="556" 
 />
    <glyph glyph-name="Rcaron" unicode="&#x158;" horiz-adv-x="338" 
 />
    <glyph glyph-name="rcaron" unicode="&#x159;" horiz-adv-x="556" 
 />
    <glyph glyph-name="Sacute" unicode="&#x15a;" horiz-adv-x="338" 
 />
    <glyph glyph-name="sacute" unicode="&#x15b;" horiz-adv-x="566" 
 />
    <glyph glyph-name="Scircumflex" unicode="&#x15c;" horiz-adv-x="338" 
 />
    <glyph glyph-name="scircumflex" unicode="&#x15d;" horiz-adv-x="566" 
 />
    <glyph glyph-name="Scaron" unicode="&#x160;" horiz-adv-x="338" 
 />
    <glyph glyph-name="scaron" unicode="&#x161;" horiz-adv-x="566" 
 />
    <glyph glyph-name="Tcaron" unicode="&#x164;" horiz-adv-x="266" 
 />
    <glyph glyph-name="tcaron" unicode="&#x165;" 
 />
    <glyph glyph-name="Utilde" unicode="&#x168;" horiz-adv-x="260" 
 />
    <glyph glyph-name="utilde" unicode="&#x169;" horiz-adv-x="487" 
 />
    <glyph glyph-name="Uring" unicode="&#x16e;" horiz-adv-x="260" 
 />
    <glyph glyph-name="uring" unicode="&#x16f;" horiz-adv-x="487" 
 />
    <glyph glyph-name="Wcircumflex" unicode="&#x174;" horiz-adv-x="256" 
 />
    <glyph glyph-name="wcircumflex" unicode="&#x175;" horiz-adv-x="463" 
 />
    <glyph glyph-name="Ycircumflex" unicode="&#x176;" horiz-adv-x="280" 
 />
    <glyph glyph-name="ycircumflex" unicode="&#x177;" horiz-adv-x="489" 
 />
    <glyph glyph-name="Ydieresis" unicode="&#x178;" horiz-adv-x="280" 
 />
    <glyph glyph-name="Zacute" unicode="&#x179;" horiz-adv-x="391" 
 />
    <glyph glyph-name="zacute" unicode="&#x17a;" horiz-adv-x="563" 
 />
    <glyph glyph-name="Zdotaccent" unicode="&#x17b;" horiz-adv-x="391" 
 />
    <glyph glyph-name="zdotaccent" unicode="&#x17c;" horiz-adv-x="563" 
 />
    <glyph glyph-name="Zcaron" unicode="&#x17d;" horiz-adv-x="391" 
 />
    <glyph glyph-name="zcaron" unicode="&#x17e;" horiz-adv-x="563" 
 />
    <glyph glyph-name="Ohorn" unicode="&#x1a0;" 
 />
    <glyph glyph-name="ohorn" unicode="&#x1a1;" 
 />
    <glyph glyph-name="Uhorn" unicode="&#x1af;" 
 />
    <glyph glyph-name="uhorn" unicode="&#x1b0;" 
 />
    <glyph glyph-name="uni01CD" unicode="&#x1cd;" horiz-adv-x="265" 
 />
    <glyph glyph-name="uni01CE" unicode="&#x1ce;" horiz-adv-x="474" 
 />
    <glyph glyph-name="uni01CF" unicode="&#x1cf;" horiz-adv-x="347" 
 />
    <glyph glyph-name="uni01D1" unicode="&#x1d1;" horiz-adv-x="404" 
 />
    <glyph glyph-name="uni01D2" unicode="&#x1d2;" horiz-adv-x="467" 
 />
    <glyph glyph-name="uni01D3" unicode="&#x1d3;" horiz-adv-x="260" 
 />
    <glyph glyph-name="uni01D4" unicode="&#x1d4;" horiz-adv-x="487" 
 />
    <glyph glyph-name="uni01D7" unicode="&#x1d7;" horiz-adv-x="260" 
 />
    <glyph glyph-name="uni01D8" unicode="&#x1d8;" horiz-adv-x="487" 
 />
    <glyph glyph-name="uni01D9" unicode="&#x1d9;" horiz-adv-x="260" 
 />
    <glyph glyph-name="uni01DA" unicode="&#x1da;" horiz-adv-x="487" 
 />
    <glyph glyph-name="uni01DB" unicode="&#x1db;" horiz-adv-x="260" 
 />
    <glyph glyph-name="uni01DC" unicode="&#x1dc;" horiz-adv-x="487" 
 />
    <glyph glyph-name="Gcaron" unicode="&#x1e6;" horiz-adv-x="259" 
 />
    <glyph glyph-name="gcaron" unicode="&#x1e7;" horiz-adv-x="468" 
 />
    <glyph glyph-name="uni01E8" unicode="&#x1e8;" horiz-adv-x="224" 
 />
    <glyph glyph-name="uni01E9" unicode="&#x1e9;" horiz-adv-x="427" 
 />
    <glyph glyph-name="uni01F0" unicode="&#x1f0;" horiz-adv-x="452" 
 />
    <glyph glyph-name="uni01F4" unicode="&#x1f4;" horiz-adv-x="259" 
 />
    <glyph glyph-name="uni01F5" unicode="&#x1f5;" horiz-adv-x="468" 
 />
    <glyph glyph-name="uni01F8" unicode="&#x1f8;" horiz-adv-x="314" 
 />
    <glyph glyph-name="uni01F9" unicode="&#x1f9;" horiz-adv-x="528" 
 />
    <glyph glyph-name="Aringacute" unicode="&#x1fa;" horiz-adv-x="441" 
 />
    <glyph glyph-name="aringacute" unicode="&#x1fb;" horiz-adv-x="474" 
 />
    <glyph glyph-name="AEacute" unicode="&#x1fc;" horiz-adv-x="365" 
 />
    <glyph glyph-name="aeacute" unicode="&#x1fd;" horiz-adv-x="347" 
 />
    <glyph glyph-name="Oslashacute" unicode="&#x1fe;" horiz-adv-x="542" 
 />
    <glyph glyph-name="uni0218" unicode="&#x218;" horiz-adv-x="338" 
 />
    <glyph glyph-name="uni0219" unicode="&#x219;" horiz-adv-x="566" 
 />
    <glyph glyph-name="uni021A" unicode="&#x21a;" horiz-adv-x="266" 
 />
    <glyph glyph-name="uni021B" unicode="&#x21b;" horiz-adv-x="487" 
 />
    <glyph glyph-name="uni021E" unicode="&#x21e;" horiz-adv-x="345" 
 />
    <glyph glyph-name="uni021F" unicode="&#x21f;" horiz-adv-x="553" 
 />
    <glyph glyph-name="uni0226" unicode="&#x226;" horiz-adv-x="265" 
 />
    <glyph glyph-name="uni0227" unicode="&#x227;" horiz-adv-x="474" 
 />
    <glyph glyph-name="uni022E" unicode="&#x22e;" horiz-adv-x="404" 
 />
    <glyph glyph-name="uni022F" unicode="&#x22f;" horiz-adv-x="467" 
 />
    <glyph glyph-name="circumflex" unicode="&#x2c6;" horiz-adv-x="349" 
d="M322 452v-452l-57 55v153q-17 -9 -34.5 -12t-40.5 -3q-25 0 -41.5 8t-40 28.5t-35.5 51.5q-6 16 -9.5 27t-3.5 24v120h-60v49h399v-49h-77zM399 345v-61q-11 0 -16.5 -2t-21.5 -9q-24 -11 -39 -33v73q15 17 35.5 24.5t41.5 7.5zM265 301v151h-147v-157q0 -22 15 -42
q10 -13 19.5 -18.5t25.5 -5.5q32 0 55 19q15 12 18 16q14 16 14 37z" />
    <glyph glyph-name="dotaccent" unicode="&#x2d9;" 
 />
    <glyph glyph-name="ring" unicode="&#x2da;" 
 />
    <glyph glyph-name="tilde" unicode="&#x2dc;" 
 />
    <glyph glyph-name="uni0344" unicode="&#x344;" horiz-adv-x="0" 
 />
    <glyph glyph-name="uni1E00" unicode="&#x1e00;" horiz-adv-x="265" 
 />
    <glyph glyph-name="uni1E01" unicode="&#x1e01;" horiz-adv-x="474" 
 />
    <glyph glyph-name="uni1E02" unicode="&#x1e02;" horiz-adv-x="513" 
 />
    <glyph glyph-name="uni1E03" unicode="&#x1e03;" horiz-adv-x="408" 
 />
    <glyph glyph-name="uni1E04" unicode="&#x1e04;" horiz-adv-x="513" 
 />
    <glyph glyph-name="uni1E05" unicode="&#x1e05;" horiz-adv-x="408" 
 />
    <glyph glyph-name="uni1E09" unicode="&#x1e09;" horiz-adv-x="762" 
 />
    <glyph glyph-name="uni1E0A" unicode="&#x1e0a;" horiz-adv-x="307" 
 />
    <glyph glyph-name="uni1E0B" unicode="&#x1e0b;" horiz-adv-x="509" 
 />
    <glyph glyph-name="uni1E0C" unicode="&#x1e0c;" horiz-adv-x="307" 
 />
    <glyph glyph-name="uni1E0D" unicode="&#x1e0d;" horiz-adv-x="509" 
 />
    <glyph glyph-name="uni1E12" unicode="&#x1e12;" horiz-adv-x="307" 
 />
    <glyph glyph-name="uni1E13" unicode="&#x1e13;" horiz-adv-x="509" 
 />
    <glyph glyph-name="uni1E18" unicode="&#x1e18;" horiz-adv-x="327" 
 />
    <glyph glyph-name="uni1E19" unicode="&#x1e19;" horiz-adv-x="516" 
 />
    <glyph glyph-name="uni1E1A" unicode="&#x1e1a;" horiz-adv-x="327" 
 />
    <glyph glyph-name="uni1E1B" unicode="&#x1e1b;" horiz-adv-x="516" 
 />
    <glyph glyph-name="uni1E1E" unicode="&#x1e1e;" horiz-adv-x="0" 
 />
    <glyph glyph-name="uni1E1F" unicode="&#x1e1f;" horiz-adv-x="207" 
 />
    <glyph glyph-name="uni1E22" unicode="&#x1e22;" horiz-adv-x="345" 
 />
    <glyph glyph-name="uni1E23" unicode="&#x1e23;" horiz-adv-x="553" 
 />
    <glyph glyph-name="uni1E24" unicode="&#x1e24;" horiz-adv-x="345" 
 />
    <glyph glyph-name="uni1E25" unicode="&#x1e25;" horiz-adv-x="553" 
 />
    <glyph glyph-name="uni1E26" unicode="&#x1e26;" horiz-adv-x="345" 
 />
    <glyph glyph-name="uni1E27" unicode="&#x1e27;" horiz-adv-x="553" 
 />
    <glyph glyph-name="uni1E2C" unicode="&#x1e2c;" horiz-adv-x="347" 
 />
    <glyph glyph-name="uni1E2D" unicode="&#x1e2d;" horiz-adv-x="244" 
 />
    <glyph glyph-name="uni1E2E" unicode="&#x1e2e;" horiz-adv-x="347" 
 />
    <glyph glyph-name="uni1E2F" unicode="&#x1e2f;" horiz-adv-x="244" 
 />
    <glyph glyph-name="uni1E30" unicode="&#x1e30;" horiz-adv-x="224" 
 />
    <glyph glyph-name="uni1E31" unicode="&#x1e31;" horiz-adv-x="427" 
 />
    <glyph glyph-name="uni1E32" unicode="&#x1e32;" horiz-adv-x="224" 
 />
    <glyph glyph-name="uni1E33" unicode="&#x1e33;" horiz-adv-x="427" 
 />
    <glyph glyph-name="uni1E36" unicode="&#x1e36;" horiz-adv-x="208" 
 />
    <glyph glyph-name="uni1E37" unicode="&#x1e37;" horiz-adv-x="183" 
 />
    <glyph glyph-name="uni1E3C" unicode="&#x1e3c;" horiz-adv-x="208" 
 />
    <glyph glyph-name="uni1E3D" unicode="&#x1e3d;" horiz-adv-x="183" 
 />
    <glyph glyph-name="uni1E3E" unicode="&#x1e3e;" horiz-adv-x="166" 
 />
    <glyph glyph-name="uni1E3F" unicode="&#x1e3f;" horiz-adv-x="212" 
 />
    <glyph glyph-name="uni1E40" unicode="&#x1e40;" horiz-adv-x="166" 
 />
    <glyph glyph-name="uni1E41" unicode="&#x1e41;" horiz-adv-x="212" 
 />
    <glyph glyph-name="uni1E42" unicode="&#x1e42;" horiz-adv-x="166" 
 />
    <glyph glyph-name="uni1E43" unicode="&#x1e43;" horiz-adv-x="212" 
 />
    <glyph glyph-name="uni1E44" unicode="&#x1e44;" horiz-adv-x="314" 
 />
    <glyph glyph-name="uni1E45" unicode="&#x1e45;" horiz-adv-x="528" 
 />
    <glyph glyph-name="uni1E46" unicode="&#x1e46;" horiz-adv-x="314" 
 />
    <glyph glyph-name="uni1E47" unicode="&#x1e47;" horiz-adv-x="528" 
 />
    <glyph glyph-name="uni1E4A" unicode="&#x1e4a;" horiz-adv-x="314" 
 />
    <glyph glyph-name="uni1E4B" unicode="&#x1e4b;" horiz-adv-x="528" 
 />
    <glyph glyph-name="uni1E4C" unicode="&#x1e4c;" horiz-adv-x="404" 
 />
    <glyph glyph-name="uni1E4D" unicode="&#x1e4d;" horiz-adv-x="467" 
 />
    <glyph glyph-name="uni1E4E" unicode="&#x1e4e;" horiz-adv-x="404" 
 />
    <glyph glyph-name="uni1E4F" unicode="&#x1e4f;" horiz-adv-x="467" 
 />
    <glyph glyph-name="uni1E54" unicode="&#x1e54;" horiz-adv-x="427" 
 />
    <glyph glyph-name="uni1E55" unicode="&#x1e55;" horiz-adv-x="518" 
 />
    <glyph glyph-name="uni1E56" unicode="&#x1e56;" horiz-adv-x="427" 
 />
    <glyph glyph-name="uni1E57" unicode="&#x1e57;" horiz-adv-x="518" 
 />
    <glyph glyph-name="uni1E58" unicode="&#x1e58;" horiz-adv-x="338" 
 />
    <glyph glyph-name="uni1E59" unicode="&#x1e59;" horiz-adv-x="556" 
 />
    <glyph glyph-name="uni1E5A" unicode="&#x1e5a;" horiz-adv-x="338" 
 />
    <glyph glyph-name="uni1E5B" unicode="&#x1e5b;" horiz-adv-x="556" 
 />
    <glyph glyph-name="uni1E60" unicode="&#x1e60;" horiz-adv-x="338" 
 />
    <glyph glyph-name="uni1E61" unicode="&#x1e61;" horiz-adv-x="566" 
 />
    <glyph glyph-name="uni1E62" unicode="&#x1e62;" horiz-adv-x="338" 
 />
    <glyph glyph-name="uni1E63" unicode="&#x1e63;" horiz-adv-x="566" 
 />
    <glyph glyph-name="uni1E64" unicode="&#x1e64;" horiz-adv-x="338" 
 />
    <glyph glyph-name="uni1E65" unicode="&#x1e65;" horiz-adv-x="566" 
 />
    <glyph glyph-name="uni1E66" unicode="&#x1e66;" horiz-adv-x="338" 
 />
    <glyph glyph-name="uni1E67" unicode="&#x1e67;" horiz-adv-x="566" 
 />
    <glyph glyph-name="uni1E68" unicode="&#x1e68;" horiz-adv-x="338" 
 />
    <glyph glyph-name="uni1E69" unicode="&#x1e69;" horiz-adv-x="566" 
 />
    <glyph glyph-name="uni1E6A" unicode="&#x1e6a;" horiz-adv-x="266" 
 />
    <glyph glyph-name="uni1E6B" unicode="&#x1e6b;" horiz-adv-x="487" 
 />
    <glyph glyph-name="uni1E6C" unicode="&#x1e6c;" horiz-adv-x="266" 
 />
    <glyph glyph-name="uni1E6D" unicode="&#x1e6d;" horiz-adv-x="487" 
 />
    <glyph glyph-name="uni1E70" unicode="&#x1e70;" horiz-adv-x="266" 
 />
    <glyph glyph-name="uni1E71" unicode="&#x1e71;" horiz-adv-x="487" 
 />
    <glyph glyph-name="uni1E72" unicode="&#x1e72;" horiz-adv-x="260" 
 />
    <glyph glyph-name="uni1E73" unicode="&#x1e73;" horiz-adv-x="487" 
 />
    <glyph glyph-name="uni1E74" unicode="&#x1e74;" horiz-adv-x="260" 
 />
    <glyph glyph-name="uni1E75" unicode="&#x1e75;" horiz-adv-x="487" 
 />
    <glyph glyph-name="uni1E76" unicode="&#x1e76;" horiz-adv-x="260" 
 />
    <glyph glyph-name="uni1E77" unicode="&#x1e77;" horiz-adv-x="487" 
 />
    <glyph glyph-name="uni1E78" unicode="&#x1e78;" horiz-adv-x="260" 
 />
    <glyph glyph-name="uni1E79" unicode="&#x1e79;" horiz-adv-x="487" 
 />
    <glyph glyph-name="uni1E7C" unicode="&#x1e7c;" horiz-adv-x="336" 
 />
    <glyph glyph-name="uni1E7D" unicode="&#x1e7d;" horiz-adv-x="561" 
 />
    <glyph glyph-name="uni1E7E" unicode="&#x1e7e;" horiz-adv-x="336" 
 />
    <glyph glyph-name="uni1E7F" unicode="&#x1e7f;" horiz-adv-x="561" 
 />
    <glyph glyph-name="Wgrave" unicode="&#x1e80;" horiz-adv-x="256" 
 />
    <glyph glyph-name="wgrave" unicode="&#x1e81;" horiz-adv-x="463" 
 />
    <glyph glyph-name="Wacute" unicode="&#x1e82;" horiz-adv-x="256" 
 />
    <glyph glyph-name="wacute" unicode="&#x1e83;" horiz-adv-x="463" 
 />
    <glyph glyph-name="Wdieresis" unicode="&#x1e84;" horiz-adv-x="256" 
 />
    <glyph glyph-name="wdieresis" unicode="&#x1e85;" horiz-adv-x="463" 
 />
    <glyph glyph-name="uni1E86" unicode="&#x1e86;" horiz-adv-x="256" 
 />
    <glyph glyph-name="uni1E87" unicode="&#x1e87;" horiz-adv-x="463" 
 />
    <glyph glyph-name="uni1E88" unicode="&#x1e88;" horiz-adv-x="256" 
 />
    <glyph glyph-name="uni1E89" unicode="&#x1e89;" horiz-adv-x="463" 
 />
    <glyph glyph-name="uni1E8A" unicode="&#x1e8a;" horiz-adv-x="363" 
 />
    <glyph glyph-name="uni1E8B" unicode="&#x1e8b;" horiz-adv-x="403" 
 />
    <glyph glyph-name="uni1E8C" unicode="&#x1e8c;" horiz-adv-x="363" 
 />
    <glyph glyph-name="uni1E8D" unicode="&#x1e8d;" horiz-adv-x="403" 
 />
    <glyph glyph-name="uni1E8E" unicode="&#x1e8e;" horiz-adv-x="280" 
 />
    <glyph glyph-name="uni1E8F" unicode="&#x1e8f;" horiz-adv-x="489" 
 />
    <glyph glyph-name="uni1E90" unicode="&#x1e90;" horiz-adv-x="391" 
 />
    <glyph glyph-name="uni1E91" unicode="&#x1e91;" horiz-adv-x="563" 
 />
    <glyph glyph-name="uni1E92" unicode="&#x1e92;" horiz-adv-x="391" 
 />
    <glyph glyph-name="uni1E93" unicode="&#x1e93;" horiz-adv-x="563" 
 />
    <glyph glyph-name="uni1E97" unicode="&#x1e97;" horiz-adv-x="487" 
 />
    <glyph glyph-name="uni1E98" unicode="&#x1e98;" horiz-adv-x="463" 
 />
    <glyph glyph-name="uni1E99" unicode="&#x1e99;" horiz-adv-x="489" 
 />
    <glyph glyph-name="uni1EA0" unicode="&#x1ea0;" horiz-adv-x="265" 
 />
    <glyph glyph-name="uni1EA1" unicode="&#x1ea1;" horiz-adv-x="474" 
 />
    <glyph glyph-name="uni1EA4" unicode="&#x1ea4;" horiz-adv-x="265" 
 />
    <glyph glyph-name="uni1EA5" unicode="&#x1ea5;" horiz-adv-x="474" 
 />
    <glyph glyph-name="uni1EA6" unicode="&#x1ea6;" horiz-adv-x="265" 
 />
    <glyph glyph-name="uni1EA7" unicode="&#x1ea7;" horiz-adv-x="474" 
 />
    <glyph glyph-name="uni1EAA" unicode="&#x1eaa;" horiz-adv-x="265" 
 />
    <glyph glyph-name="uni1EAB" unicode="&#x1eab;" horiz-adv-x="474" 
 />
    <glyph glyph-name="uni1EAC" unicode="&#x1eac;" horiz-adv-x="265" 
 />
    <glyph glyph-name="uni1EAD" unicode="&#x1ead;" horiz-adv-x="474" 
 />
    <glyph glyph-name="uni1EB8" unicode="&#x1eb8;" horiz-adv-x="327" 
 />
    <glyph glyph-name="uni1EB9" unicode="&#x1eb9;" horiz-adv-x="516" 
 />
    <glyph glyph-name="uni1EBC" unicode="&#x1ebc;" horiz-adv-x="327" 
 />
    <glyph glyph-name="uni1EBD" unicode="&#x1ebd;" horiz-adv-x="516" 
 />
    <glyph glyph-name="uni1EBE" unicode="&#x1ebe;" horiz-adv-x="327" 
 />
    <glyph glyph-name="uni1EBF" unicode="&#x1ebf;" horiz-adv-x="516" 
 />
    <glyph glyph-name="uni1EC0" unicode="&#x1ec0;" horiz-adv-x="327" 
 />
    <glyph glyph-name="uni1EC1" unicode="&#x1ec1;" horiz-adv-x="516" 
 />
    <glyph glyph-name="uni1EC4" unicode="&#x1ec4;" horiz-adv-x="327" 
 />
    <glyph glyph-name="uni1EC5" unicode="&#x1ec5;" horiz-adv-x="516" 
 />
    <glyph glyph-name="uni1EC6" unicode="&#x1ec6;" horiz-adv-x="327" 
 />
    <glyph glyph-name="uni1EC7" unicode="&#x1ec7;" horiz-adv-x="516" 
 />
    <glyph glyph-name="uni1ECA" unicode="&#x1eca;" horiz-adv-x="347" 
 />
    <glyph glyph-name="uni1ECB" unicode="&#x1ecb;" horiz-adv-x="244" 
 />
    <glyph glyph-name="uni1ECC" unicode="&#x1ecc;" horiz-adv-x="404" 
 />
    <glyph glyph-name="uni1ECD" unicode="&#x1ecd;" horiz-adv-x="467" 
 />
    <glyph glyph-name="uni1ED0" unicode="&#x1ed0;" horiz-adv-x="404" 
 />
    <glyph glyph-name="uni1ED1" unicode="&#x1ed1;" horiz-adv-x="467" 
 />
    <glyph glyph-name="uni1ED2" unicode="&#x1ed2;" horiz-adv-x="404" 
 />
    <glyph glyph-name="uni1ED3" unicode="&#x1ed3;" horiz-adv-x="467" 
 />
    <glyph glyph-name="uni1ED6" unicode="&#x1ed6;" horiz-adv-x="404" 
 />
    <glyph glyph-name="uni1ED7" unicode="&#x1ed7;" horiz-adv-x="467" 
 />
    <glyph glyph-name="uni1ED8" unicode="&#x1ed8;" horiz-adv-x="404" 
 />
    <glyph glyph-name="uni1ED9" unicode="&#x1ed9;" horiz-adv-x="467" 
 />
    <glyph glyph-name="uni1EDA" unicode="&#x1eda;" 
 />
    <glyph glyph-name="uni1EDB" unicode="&#x1edb;" 
 />
    <glyph glyph-name="uni1EDC" unicode="&#x1edc;" 
 />
    <glyph glyph-name="uni1EDD" unicode="&#x1edd;" 
 />
    <glyph glyph-name="uni1EE0" unicode="&#x1ee0;" 
 />
    <glyph glyph-name="uni1EE1" unicode="&#x1ee1;" 
 />
    <glyph glyph-name="uni1EE2" unicode="&#x1ee2;" 
 />
    <glyph glyph-name="uni1EE3" unicode="&#x1ee3;" 
 />
    <glyph glyph-name="uni1EE4" unicode="&#x1ee4;" horiz-adv-x="260" 
 />
    <glyph glyph-name="uni1EE5" unicode="&#x1ee5;" horiz-adv-x="487" 
 />
    <glyph glyph-name="uni1EE8" unicode="&#x1ee8;" 
 />
    <glyph glyph-name="uni1EE9" unicode="&#x1ee9;" 
 />
    <glyph glyph-name="uni1EEA" unicode="&#x1eea;" 
 />
    <glyph glyph-name="uni1EEB" unicode="&#x1eeb;" 
 />
    <glyph glyph-name="uni1EEE" unicode="&#x1eee;" 
 />
    <glyph glyph-name="uni1EEF" unicode="&#x1eef;" 
 />
    <glyph glyph-name="uni1EF0" unicode="&#x1ef0;" 
 />
    <glyph glyph-name="uni1EF1" unicode="&#x1ef1;" 
 />
    <glyph glyph-name="Ygrave" unicode="&#x1ef2;" horiz-adv-x="280" 
 />
    <glyph glyph-name="ygrave" unicode="&#x1ef3;" horiz-adv-x="489" 
 />
    <glyph glyph-name="uni1EF4" unicode="&#x1ef4;" horiz-adv-x="280" 
 />
    <glyph glyph-name="uni1EF5" unicode="&#x1ef5;" horiz-adv-x="489" 
 />
    <glyph glyph-name="uni1EF8" unicode="&#x1ef8;" horiz-adv-x="280" 
 />
    <glyph glyph-name="uni1EF9" unicode="&#x1ef9;" horiz-adv-x="489" 
 />
    <glyph glyph-name="uni1FC0" unicode="&#x1fc0;" 
 />
    <glyph glyph-name="uni1FC1" unicode="&#x1fc1;" 
 />
    <glyph glyph-name="uni1FED" unicode="&#x1fed;" 
 />
    <glyph glyph-name="endash" unicode="&#x2013;" horiz-adv-x="333" 
d="M283 225h-233v55h233v-55z" />
    <glyph glyph-name="emdash" unicode="&#x2014;" horiz-adv-x="512" 
d="M463 225h-413v55h413v-55z" />
    <glyph glyph-name="quoteleft" unicode="&#x2018;" horiz-adv-x="0" 
d="M-205 644q-4 10 -7.5 22t-4.5 22q2 -13 14.5 -35t29 -40t36 -29t37.5 -8q21 3 36.5 16.5t20.5 28.5t5 20q0 7 -2.5 13.5t-8.5 17.5h32q8 -19 8 -35t-8 -35q-22 -52 -72 -52q-31 0 -59 21q-21 16 -34.5 32.5t-22.5 40.5z" />
    <glyph glyph-name="quotedblbase" unicode="&#x201e;" horiz-adv-x="463" 
d="M305 257v195h-67l-34 48h259v-48h-100v-452l-58 55v84q-24 -28 -52 -44q-18 -10 -30 -15.5t-25 -7.5l-27 -6q-14 -2 -21 -2q-16 0 -33 7q-31 12 -50 42t-19 62v12q2 8 2 12q4 32 28 64q16 21 39 35q-14 6 -23 11.5t-25 18.5t-23 20q-11 12 -15.5 25t-7.5 24.5t-3 20.5
q0 17 9 35q19 39 57 45q5 1 16 1q30 0 51 -22q9 -10 14.5 -22t5.5 -23q0 -7 -1.5 -16t-10.5 -20t-25 -19q-6 -3 -16.5 -4t-12.5 -1q-13 0 -24.5 1.5t-19.5 5.5q2 -18 15 -37q20 -28 51 -32l16 7q10 4 23 4h32l47 -49q-7 0 -15 1t-13 1h-13q-10 -2 -15 -2q-26 -4 -39 -8
t-29 -16q-21 -16 -29 -25q-12 -15 -13.5 -28.5t-1.5 -26.5t2.5 -20.5t11 -15.5t15.5 -10.5t20 -2.5q16 1 25 1q27 0 50 13l29 19q16 11 26.5 19.5t20.5 23.5q17 25 21.5 37t4.5 25zM128 -1l177 176v-61l-145 -146zM109 394q20 0 35 11.5t15 30.5q0 18 -16.5 29.5t-37.5 11.5
q-23 0 -40 -14.5t-14 -35.5q3 -18 19 -25.5t39 -7.5z" />
    <glyph glyph-name="bullet" unicode="&#x2022;" horiz-adv-x="459" 
d="M302 396v56h-302v48h459v-48h-100v-100h-166q-24 0 -40 -6t-16 -25q0 -11 11 -15t33 -7q13 -2 32.5 4t34.5 5q27 0 45.5 -7.5t44.5 -26.5t34 -32.5t8 -31.5q0 -37 -38 -58q-33 -18 -79 -18q-27 0 -55.5 8.5t-41.5 16.5q-14 -3 -22 -14t-8 -26q0 -4 3 -13.5t13 -16.5
q6 -4 22 -10q11 -3 19 -3t31 5.5t32 5.5q52 -5 84 -30.5t32 -72.5q0 -33 -38 -53q-31 -17 -79 -21q-40 0 -84 21q-35 17 -59 39t-49 54q-21 27 -30 48h19q9 -17 19 -29q16 -20 43 -41q20 -16 51.5 -28t64.5 -12q38 0 73.5 18t29.5 42q-5 24 -35 24q-11 0 -20 -1t-29 -6
q-8 -2 -22.5 -7t-24.5 -5q-29 0 -43 18l-52 63q-10 13 -10 36q3 29 29 40q-16 11 -27 22l-26 27q-26 29 -43 60h15q15 -24 31 -40t43 -35t55 -30t61 -11q38 0 70 20.5t28 46.5q-3 24 -37 24q-19 0 -46.5 -9.5t-40.5 -9.5q-8 0 -21.5 2t-29 12.5t-35.5 31t-26 29.5
q-11 17 -11 33q0 6 1 9q5 20 23 25t49 5h143z" />
    <glyph glyph-name="ellipsis" unicode="&#x2026;" horiz-adv-x="176" 
d="M126 390l-38 -37l-38 38q0 9 2 20l4 22l5 28q3 17 11 37q3 9 7 16q10 16 15 25q9 16 18.5 26.5t14.5 15.5l17 -17q-19 -18 -31 -43q-8 -18 -9 -21q-4 -11 -4 -23q0 -10 1.5 -17.5t5 -21t8.5 -25.5t11 -23z" />
    <glyph glyph-name="perthousand" unicode="&#x2030;" horiz-adv-x="466" 
d="M214 262h146v-59h-148q0 -20 -10 -48q-3 -12 -7 -24t-15 -14q-10 -2 -18 1.5t-15 13.5l-64 83q-9 12 -11 17q-5 11 -1 19q3 6 9.5 8.5t23.5 2.5h53v82q-14 0 -27 0.5t-31 5.5q-26 8 -41 17q-19 12 -28 33t-9 44q0 39 28 56q11 7 24 7q17 0 39 -14q10 -7 38 -30
q16 -14 27 -32t25 -68q7 -27 9.5 -47t2.5 -54zM360 55v396h-90l-48 49h294v-48h-100v-452zM516 310v-55q-12 -3 -22 -6t-27.5 -11t-25 -13t-25.5 -21v73q24 19 50.5 26t49.5 7zM61 396q19 -36 62 -36q17 0 34 9q4 16 4 25q0 29 -21 52q-12 14 -25.5 22t-27.5 8q-10 0 -19 -6
q-17 -11 -17 -35q0 -19 10 -39z" />
    <glyph glyph-name="guilsinglleft" unicode="&#x2039;" horiz-adv-x="433" 
d="M275 452h-275v48h433v-48h-100v-72h-146q-23 0 -45 -1t-25.5 -5.5t-3.5 -14.5q0 -7 7 -29.5t45 -22.5q11 0 30 9t31 9q31 0 47 -3.5t38.5 -19.5t36 -34t13.5 -40q0 -5 -2.5 -17t-10.5 -22q-3 -4 -31 -27l-23 -20q-21 -17 -35 -19t-22 -2q-18 0 -37 8q-2 1 -35 18.5
t-53 37.5q-15 15 -40 52q-12 19 -23.5 41t-16.5 35q4 -10 24 -38q24 -34 43 -52q25 -24 41 -34q22 -14 44.5 -16.5t29.5 -2.5q28 0 56 16q15 9 24 15q22 16 22 38q0 24 -22 38q-11 6 -21 6q-7 0 -17 -3t-18 -5t-26 -11t-31 -9q-9 0 -17.5 4t-21.5 19l-58 63q-11 13 -11 29
q0 7 3.5 16.5t10 14.5t22.5 10q3 1 10 1.5t13 1.5h19h124v38zM354 336l29 28l28 -28l-28 -29zM127 173l209 4v-283l-37 40v61q-10 -16 -26 -26q-27 -18 -54 -18q-36 0 -60 30q-18 23 -18 47q0 9 2.5 26.5t27.5 35.5q-12 2 -19.5 5.5t-17 12t-13 13.5t-4.5 10t-1 12
q0 16 11 30zM192 165q-1 -1 -14 -7t-15 -13q-1 -7 1 -14t7 -16t18 -12l30 1l20 -1l28 -31q-16 0 -25.5 -1t-22.5 -5t-25 -7q-10 -4 -18 -15q-11 -16 -11 -32q0 -10 5.5 -18t12.5 -10.5t21 -2.5h15q15 0 27 7q1 1 22 16.5t31 33.5v127h-107z" />
    <glyph glyph-name="guilsinglright" unicode="&#x203a;" horiz-adv-x="408" 
d="M252 452h-252v48h408v-48h-100v-130h-125q-24 0 -35 -2.5t-27 -13.5q-21 -15 -30 -42q-4 -13 -4 -26q0 -5 2.5 -20.5t9.5 -27.5t22.5 -23t17.5 -12q10 -5 22 -5q27 0 46 10q-9 14 -9 27q0 4 2 14q7 30 42 35q4 1 11 1q24 0 43.5 -17.5t19.5 -49.5q0 -10 -6 -21l-11 -16
q-7 -12 -17 -20l62 -93l-30 -20l-64 98q-17 -4 -35 -4q-14 0 -26 2.5t-24 8.5q-3 2 -26 16q-15 10 -28 23q-6 7 -15 18.5t-15 20.5q-13 19 -18 34.5t-9 30t-4 35.5q0 39 29 67q13 12 26.5 18.5t30.5 6.5h116v77zM273 64l-121 -121l-29 28l127 127z" />
    <glyph glyph-name="trademark" unicode="&#x2122;" horiz-adv-x="403" 
d="M245 452h-245v48h403v-48h-100v-123h-151h-20q-12 0 -20 -2q-19 -6 -27.5 -11.5t-12.5 -19.5t1 -24l6 -15q9 -21 25 -35q15 10 26.5 15.5t25 9.5t27.5 7t31 3q39 0 72 -27q24 -20 36 -66q1 -4 1 -7v-7q0 -24 -16 -55q-11 -21 -31 -35l-36 41q23 8 38 32q5 8 8.5 16
t3.5 21q0 19 -21 38q-10 9 -26 9q-7 0 -22 -3l-23 -6q-27 -6 -45.5 -17.5t-32 -31t-18.5 -30t-5 -28.5q0 -16 5 -28t17 -28q9 -12 19 -19l29 -12l31 -8q11 -2 18 -2q10 -1 22 -1h33l-3 -21q-35 0 -39 1q-15 0 -23 1q-6 0 -17 2q-40 7 -56 16l-28 17q-25 16 -38 36
q-21 33 -21 67q0 10 2.5 33.5t34.5 52.5q-28 23 -35 50q-3 11 -7 23.5t-4 26.5q0 11 1 16t7 15q11 20 31 31q13 7 28.5 8t24.5 1h116v73zM270 -61q-1 13 9 23t24 10t24 -10t9 -24q1 -12 -9 -22t-24 -10t-24 10t-9 23zM37 -61q-1 13 9 23t24 10t24 -10t10 -24q0 -12 -10 -22
t-24 -10t-24 10t-9 23z" />
    <glyph glyph-name="notequal" unicode="&#x2260;" horiz-adv-x="226" 
 />
    <glyph glyph-name="uni226E" unicode="&#x226e;" horiz-adv-x="322" 
 />
    <glyph glyph-name="uni226F" unicode="&#x226f;" horiz-adv-x="555" 
 />
  </font>
</defs>
</svg>
